<svg xmlns="http://www.w3.org/2000/svg" xmlns:xlink="http://www.w3.org/1999/xlink" viewBox="0 0 32.25 32.25"><defs><linearGradient id="a" x1="15.6" y1="-49.19" x2="16.56" y2="70.38" gradientUnits="userSpaceOnUse"><stop offset="0" stop-color="#fff"/><stop offset="0.22" stop-color="#fdfeff"/><stop offset="0.3" stop-color="#f6fbfe"/><stop offset="0.36" stop-color="#ebf5fd"/><stop offset="0.4" stop-color="#daedfb"/><stop offset="0.44" stop-color="#c4e3f9"/><stop offset="0.47" stop-color="#a8d6f6"/><stop offset="0.51" stop-color="#88c7f3"/><stop offset="0.53" stop-color="#64b5ef"/><stop offset="0.54" stop-color="#5fb3ef"/><stop offset="0.54" stop-color="#64b5ef"/><stop offset="0.56" stop-color="#88c7f3"/><stop offset="0.59" stop-color="#a8d6f6"/><stop offset="0.62" stop-color="#c4e3f9"/><stop offset="0.65" stop-color="#daedfb"/><stop offset="0.69" stop-color="#ebf5fd"/><stop offset="0.74" stop-color="#f6fbfe"/><stop offset="0.81" stop-color="#fdfeff"/><stop offset="1" stop-color="#fff"/></linearGradient></defs><rect x="0.13" y="0.13" width="32" height="32" style="stroke:#000;stroke-miterlimit:10;stroke-width:0.25px;fill:url(#a)"/><circle cx="16.09" cy="16.17" r="6.75" style="fill:none;stroke:#d71739;stroke-miterlimit:10;stroke-width:0.75px"/><polyline points="22.85 2.66 16.09 2.66 16.09 9.41" style="fill:none;stroke:#d71739;stroke-miterlimit:10;stroke-width:0.75px"/><polyline points="16.09 22.92 16.09 29.68 22.85 29.68" style="fill:none;stroke:#d71739;stroke-miterlimit:10;stroke-width:0.75px"/><text transform="translate(16.78 9.04)" style="font-size:10.130780220031738px;fill:#d71739;font-family:AdobeSongStd-Light-GBpc-EUC-H, Adobe Song Std">+</text><text transform="translate(17.09 29.55)" style="font-size:10.130780220031738px;fill:#d71739;font-family:AdobeSongStd-Light-GBpc-EUC-H, Adobe Song Std">-</text><path d="M15.8,20.51l-2.29-5.78a.5.5,0,0,0-.08-.14.3.3,0,0,0-.14-.1l-.47-.2V14H15.2v.32l-.75.27,1.63,4.13.17.6h.07l1.78-4.7-.75-.3V14h2v.32l-.46.22a.55.55,0,0,0-.14.09.42.42,0,0,0-.09.14l-1.84,4.71-.51,1.06Z" style="fill:#d71739"/></svg>