<svg xmlns="http://www.w3.org/2000/svg" viewBox="0 0 48.25 57.52"><rect x="0.13" y="0.13" width="48" height="57" style="fill:#fff;stroke:#000;stroke-miterlimit:10;stroke-width:0.25px"/><rect x="0.13" y="0.13" width="48" height="28" style="fill:#27ee7c;stroke:#000;stroke-miterlimit:10;stroke-width:0.25px"/><circle cx="12.63" cy="14.13" r="7.5" style="fill:#fff;stroke:#000;stroke-miterlimit:10;stroke-width:0.25px"/><circle cx="35.63" cy="14.13" r="7.5" style="fill:#fff;stroke:#000;stroke-miterlimit:10;stroke-width:0.25px"/><path d="M3.12,41.35V41l1.18-.27a.25.25,0,0,0,.21-.27V35.52l.06-.75H4.49L3,35v-.45l2.17-1h.47c0,.24,0,.51,0,.82s0,.61,0,.87v5.12a.3.3,0,0,0,0,.18.32.32,0,0,0,.15.09L6.9,41v.4Z"/><path d="M7.87,41.35v-.64c.73-.59,1.37-1.15,1.94-1.7a8.57,8.57,0,0,0,1.35-1.6,2.9,2.9,0,0,0,.5-1.56,2.57,2.57,0,0,0-.12-.84,1,1,0,0,0-.37-.52,1.13,1.13,0,0,0-.67-.18,2.37,2.37,0,0,0-.64.1,4.11,4.11,0,0,0-.61.25,3.72,3.72,0,0,0-.52.3l-.39.25H8.11l0-1.07.49-.22a4.43,4.43,0,0,1,.75-.24,3.8,3.8,0,0,1,1-.11,3.21,3.21,0,0,1,1.3.25,2.23,2.23,0,0,1,.91.74,2,2,0,0,1,.34,1.16,2.62,2.62,0,0,1-.3,1.22,4.94,4.94,0,0,1-.82,1.14,11.81,11.81,0,0,1-1.19,1.12q-.66.57-1.41,1.17v.09l.67-.07h2.39a.26.26,0,0,0,.2-.07.28.28,0,0,0,.08-.15l.17-.86h.53l0,2Z"/><path d="M17.18,41.45,14.47,34.6a.65.65,0,0,0-.09-.16.52.52,0,0,0-.17-.12l-.56-.23V33.7h2.82v.39l-.89.31,1.93,4.9.2.71h.09l2.1-5.57L19,34.09V33.7H21.4v.39l-.55.25a.51.51,0,0,0-.16.11.42.42,0,0,0-.1.17l-2.18,5.57-.61,1.26Z"/><path d="M37.15,40.86V39a.29.29,0,0,0,0-.17.25.25,0,0,0-.12-.08l-.86-.27V38.1h2.64v.39l-.55.27a.31.31,0,0,0-.11.09.2.2,0,0,0-.06.16v1.73c0,.24,0,.43,0,.57a7,7,0,0,1-1.1.38,5.06,5.06,0,0,1-1.28.17,2.68,2.68,0,0,1-1.5-.46,3.16,3.16,0,0,1-1.09-1.35,5.22,5.22,0,0,1-.41-2.17,5.32,5.32,0,0,1,.4-2.13,3.3,3.3,0,0,1,1.11-1.39,2.67,2.67,0,0,1,1.58-.49,6.18,6.18,0,0,1,.77,0,6.26,6.26,0,0,1,.73.14c.24.05.48.13.74.21v2h-.51l-.16-1.1a.2.2,0,0,0-.08-.14l-.12-.08a3.1,3.1,0,0,0-.69-.27,2.76,2.76,0,0,0-.75-.1,1.67,1.67,0,0,0-1.05.34,2.19,2.19,0,0,0-.71,1,5.13,5.13,0,0,0-.26,1.75A6.07,6.07,0,0,0,34,39.5a2.92,2.92,0,0,0,.76,1.25,1.73,1.73,0,0,0,1.2.46,2.19,2.19,0,0,0,.53-.07,2.72,2.72,0,0,0,.43-.14Z"/><text transform="translate(14.78 55.24)" style="font-size:9px;font-family:AdobeSongStd-Light-GBpc-EUC-H, Adobe Song Std;letter-spacing:-0.023003472222222224em">VDC</text></svg>