<svg xmlns="http://www.w3.org/2000/svg" viewBox="0 0 416 57"><rect x="0.13" y="0.13" width="415.75" height="56.75" style="fill:#fff"/><path d="M415.75.25v56.5H.25V.25h415.5M416,0H0V57H416V0Z"/><rect x="0.13" y="0.13" width="103.75" height="29.75" style="fill:#b3bbb3"/><path d="M103.75.25v29.5H.25V.25h103.5M104,0H0V30H104V0Z"/><rect x="5" y="4" width="16" height="17.81" style="fill:#ffe800"/><rect x="11" y="16.57" width="4" height="8.38" style="fill:#ffe800"/><rect x="5" y="23.9" width="16" height="2.1" style="fill:#ffe800"/><ellipse cx="13" cy="12.38" rx="3" ry="3.14" style="fill:#fff"/><rect x="31" y="4" width="16" height="17.81" style="fill:#ffe800"/><rect x="37" y="16.57" width="4" height="8.38" style="fill:#ffe800"/><rect x="31" y="23.9" width="16" height="2.1" style="fill:#ffe800"/><ellipse cx="39" cy="12.38" rx="3" ry="3.14" style="fill:#fff"/><rect x="57" y="4" width="16" height="17.81" style="fill:#ffe800"/><rect x="63" y="16.57" width="4" height="8.38" style="fill:#ffe800"/><rect x="57" y="23.9" width="16" height="2.1" style="fill:#ffe800"/><ellipse cx="65" cy="12.38" rx="3" ry="3.14" style="fill:#fff"/><rect x="83" y="4" width="16" height="17.81" style="fill:#ffe800"/><rect x="89" y="16.57" width="4" height="8.38" style="fill:#ffe800"/><rect x="83" y="23.9" width="16" height="2.1" style="fill:#ffe800"/><ellipse cx="91" cy="12.38" rx="3" ry="3.14" style="fill:#fff"/><path d="M11,38.84l.07-.09,1.61-1.7-.05-.12-2.29-.44-.09,0,.35-1.08.11,0,2.1,1,.13-.1L12.6,34V33.9h1.14V34l-.28,2.31.11.1,2.12-1,.09,0,.35,1.07-.09.05-2.29.44-.05.13,1.59,1.69.05.09-.92.66-.06-.08-1.12-2h-.15l-1.13,2-.07.08Z"/><path d="M35.7,36.22h6.92v.89H35.7Zm3-3h.91v6.9h-.91Z"/><path d="M63.3,37.38V36.32H67v1.06Z"/><text transform="translate(87.66 41.32)" style="font-size:14px;font-family:AdobeSongStd-Light-GBpc-EUC-H, Adobe Song Std;letter-spacing:-0.023018973214285716em">R</text><path d="M49.56,51.86h.18v.47a3.46,3.46,0,0,1-.49.36,3.05,3.05,0,0,1-.63.3,2.24,2.24,0,0,1-.73.12,2.66,2.66,0,0,1-1.32-.31,2.15,2.15,0,0,1-.88-.91,3,3,0,0,1-.32-1.43,2.88,2.88,0,0,1,.33-1.41,2.37,2.37,0,0,1,.9-.93,2.59,2.59,0,0,1,1.3-.33,4.4,4.4,0,0,1,.59.05l.62.1.51.11v1.31h-.41l-.14-.73a.17.17,0,0,0-.07-.1.41.41,0,0,0-.11-.07,2.48,2.48,0,0,0-.48-.17,2.62,2.62,0,0,0-.57-.06,1.53,1.53,0,0,0-1.19.51,2.31,2.31,0,0,0-.46,1.56,2.46,2.46,0,0,0,.5,1.68,1.75,1.75,0,0,0,1.41.57,1.6,1.6,0,0,0,.56-.09,2.09,2.09,0,0,0,.46-.26A4.34,4.34,0,0,0,49.56,51.86Z"/><path d="M50.28,53v-.27l.55-.17a.21.21,0,0,0,.1-.06.21.21,0,0,0,0-.12V48.51a.14.14,0,0,0,0-.11.15.15,0,0,0-.09-.06l-.55-.18V47.9h2.11v.26l-.54.18a.21.21,0,0,0-.1.06.15.15,0,0,0,0,.11v1.62h2.51V48.51a.14.14,0,0,0,0-.11l-.1-.06-.54-.18V47.9h2.11v.26l-.54.18-.1.06a.15.15,0,0,0,0,.11v3.87a.16.16,0,0,0,0,.12.21.21,0,0,0,.1.06l.54.17V53H53.54v-.27l.54-.17.1-.06a.16.16,0,0,0,0-.12V50.57H51.71v1.81a.16.16,0,0,0,0,.12l.1.06.54.17V53Z"/><path d="M56.5,53v-.26l.78-.18a.16.16,0,0,0,.14-.18V49.11l0-.49h-.05l-1,.17v-.3l1.45-.66h.31c0,.16,0,.35,0,.55v4a.21.21,0,0,0,0,.12l.1.06.75.18V53Z"/><polyline points="13.11 43 5 51 45 51" style="fill:none;stroke:#000;stroke-miterlimit:10"/><polyline points="91 43 99 51 59 51" style="fill:none;stroke:#000;stroke-miterlimit:10"/><rect x="104.13" y="0.13" width="103.75" height="29.75" style="fill:#b3bbb3"/><path d="M207.75.25v29.5H104.25V.25h103.5M208,0H104V30H208V0Z"/><rect x="109" y="4" width="16" height="17.81" style="fill:#ffe800"/><rect x="115" y="16.57" width="4" height="8.38" style="fill:#ffe800"/><rect x="109" y="23.9" width="16" height="2.1" style="fill:#ffe800"/><ellipse cx="117" cy="12.38" rx="3" ry="3.14" style="fill:#fff"/><rect x="135" y="4" width="16" height="17.81" style="fill:#ffe800"/><rect x="141" y="16.57" width="4" height="8.38" style="fill:#ffe800"/><rect x="135" y="23.9" width="16" height="2.1" style="fill:#ffe800"/><ellipse cx="143" cy="12.38" rx="3" ry="3.14" style="fill:#fff"/><rect x="161" y="4" width="16" height="17.81" style="fill:#ffe800"/><rect x="167" y="16.57" width="4" height="8.38" style="fill:#ffe800"/><rect x="161" y="23.9" width="16" height="2.1" style="fill:#ffe800"/><ellipse cx="169" cy="12.38" rx="3" ry="3.14" style="fill:#fff"/><rect x="187" y="4" width="16" height="17.81" style="fill:#ffe800"/><rect x="193" y="16.57" width="4" height="8.38" style="fill:#ffe800"/><rect x="187" y="23.9" width="16" height="2.1" style="fill:#ffe800"/><ellipse cx="195" cy="12.38" rx="3" ry="3.14" style="fill:#fff"/><path d="M115,38.84l.07-.09,1.61-1.7,0-.12-2.29-.44-.09,0,.35-1.08.11,0,2.1,1,.13-.1L116.6,34V33.9h1.14V34l-.28,2.31.11.1,2.12-1,.09,0,.35,1.07-.09.05-2.29.44,0,.13,1.59,1.69,0,.09-.92.66-.06-.08-1.12-2h-.15l-1.13,2-.07.08Z"/><path d="M139.7,36.22h6.92v.89H139.7Zm3-3h.91v6.9h-.91Z"/><path d="M167.3,37.38V36.32H171v1.06Z"/><text transform="translate(190.66 41.32)" style="font-size:14px;font-family:AdobeSongStd-Light-GBpc-EUC-H, Adobe Song Std;letter-spacing:-0.023018973214285716em">R</text><path d="M153,52.25h.18v.48a4.72,4.72,0,0,1-.5.35,3.05,3.05,0,0,1-.63.3,2.19,2.19,0,0,1-.73.12,2.68,2.68,0,0,1-1.32-.31,2.15,2.15,0,0,1-.88-.91,3,3,0,0,1-.31-1.43,2.88,2.88,0,0,1,.33-1.41,2.37,2.37,0,0,1,.9-.93,2.54,2.54,0,0,1,1.3-.33,4.26,4.26,0,0,1,.58,0l.63.1.51.11v1.31h-.42l-.14-.73a.21.21,0,0,0-.06-.1l-.12-.07a2.3,2.3,0,0,0-1.05-.23,1.51,1.51,0,0,0-1.18.51,2.27,2.27,0,0,0-.46,1.57,2.5,2.5,0,0,0,.49,1.68,1.8,1.8,0,0,0,1.42.56,1.59,1.59,0,0,0,.55-.09,2.16,2.16,0,0,0,.47-.26C152.72,52.49,152.87,52.38,153,52.25Z"/><path d="M153.73,53.39v-.27l.55-.17a.17.17,0,0,0,.1-.06.16.16,0,0,0,0-.12V48.9a.18.18,0,0,0,0-.11.21.21,0,0,0-.1-.06l-.55-.18v-.26h2.12v.26l-.55.18a.18.18,0,0,0-.09.06.16.16,0,0,0-.05.11v1.62h2.51V48.9a.18.18,0,0,0,0-.11l-.11-.06-.54-.18v-.26h2.11v.26l-.54.18-.1.06a.15.15,0,0,0,0,.11v3.87a.21.21,0,0,0,0,.12.27.27,0,0,0,.1.06l.54.17v.27H157v-.27l.54-.17a.2.2,0,0,0,.11-.06.21.21,0,0,0,0-.12V51h-2.51v1.81a.21.21,0,0,0,0,.12.21.21,0,0,0,.1.06l.55.17v.27Z"/><path d="M159.69,53.39V53c.49-.39.92-.76,1.3-1.13a5.58,5.58,0,0,0,.9-1.06,2,2,0,0,0,.33-1,1.79,1.79,0,0,0-.08-.56.69.69,0,0,0-.24-.35.75.75,0,0,0-.45-.12,1.29,1.29,0,0,0-.43.07,2.38,2.38,0,0,0-.4.16,3.63,3.63,0,0,0-.35.2l-.26.17h-.16l0-.72.32-.14a2.68,2.68,0,0,1,.5-.16,2.71,2.71,0,0,1,.66-.08,2,2,0,0,1,.87.18,1.35,1.35,0,0,1,.61.49,1.29,1.29,0,0,1,.22.77,1.65,1.65,0,0,1-.2.81,3.13,3.13,0,0,1-.54.76,8.21,8.21,0,0,1-.79.75l-.94.78v.06l.44,0h1.6a.18.18,0,0,0,.13,0,.31.31,0,0,0,0-.1l.11-.57h.36l0,1.35Z"/><polyline points="117 43 109 51 148.83 51" style="fill:none;stroke:#000;stroke-miterlimit:10"/><polyline points="195 43 203 51 164 51" style="fill:none;stroke:#000;stroke-miterlimit:10"/><rect x="208.13" y="0.13" width="103.75" height="29.75" style="fill:#b3bbb3"/><path d="M311.75.25v29.5H208.25V.25h103.5M312,0H208V30H312V0Z"/><rect x="213" y="4" width="16" height="17.81" style="fill:#ffe800"/><rect x="219" y="16.57" width="4" height="8.38" style="fill:#ffe800"/><rect x="213" y="23.9" width="16" height="2.1" style="fill:#ffe800"/><ellipse cx="221" cy="12.38" rx="3" ry="3.14" style="fill:#fff"/><rect x="239" y="4" width="16" height="17.81" style="fill:#ffe800"/><rect x="245" y="16.57" width="4" height="8.38" style="fill:#ffe800"/><rect x="239" y="23.9" width="16" height="2.1" style="fill:#ffe800"/><ellipse cx="247" cy="12.38" rx="3" ry="3.14" style="fill:#fff"/><rect x="265" y="4" width="16" height="17.81" style="fill:#ffe800"/><rect x="271" y="16.57" width="4" height="8.38" style="fill:#ffe800"/><rect x="265" y="23.9" width="16" height="2.1" style="fill:#ffe800"/><ellipse cx="273" cy="12.38" rx="3" ry="3.14" style="fill:#fff"/><rect x="291" y="4.5" width="16" height="17.81" style="fill:#ffe800"/><rect x="297" y="16.57" width="4" height="8.38" style="fill:#ffe800"/><rect x="291" y="23.9" width="16" height="2.1" style="fill:#ffe800"/><ellipse cx="299" cy="12.38" rx="3" ry="3.14" style="fill:#fff"/><path d="M219,38.84l.07-.09,1.61-1.7,0-.12-2.29-.44-.09,0,.35-1.08.11,0,2.1,1,.13-.1L220.6,34V33.9h1.14V34l-.28,2.31.11.1,2.12-1,.09,0,.36,1.07-.1.05-2.29.44-.05.13,1.59,1.69.06.09-.93.66-.06-.08-1.12-2h-.15l-1.13,2-.07.08Z"/><path d="M243.7,36.22h6.92v.89H243.7Zm3-3h.91v6.9h-.91Z"/><path d="M271.3,36.88V35.82H275v1.06Z"/><text transform="translate(294.66 41.32)" style="font-size:14px;font-family:AdobeSongStd-Light-GBpc-EUC-H, Adobe Song Std;letter-spacing:-0.023018973214285716em">R</text><path d="M257,51.75h.18v.48a4.72,4.72,0,0,1-.5.35,3.05,3.05,0,0,1-.63.3,2.19,2.19,0,0,1-.73.12,2.68,2.68,0,0,1-1.32-.31,2.15,2.15,0,0,1-.88-.91,3,3,0,0,1-.31-1.43,2.88,2.88,0,0,1,.33-1.41,2.37,2.37,0,0,1,.9-.93,2.54,2.54,0,0,1,1.3-.33,4.26,4.26,0,0,1,.58,0l.63.1.51.11v1.31h-.42l-.14-.73a.21.21,0,0,0-.06-.1l-.12-.07a2.3,2.3,0,0,0-1-.23,1.51,1.51,0,0,0-1.19.51,2.27,2.27,0,0,0-.46,1.57,2.5,2.5,0,0,0,.49,1.68,1.8,1.8,0,0,0,1.42.56,1.59,1.59,0,0,0,.55-.09,2.16,2.16,0,0,0,.47-.26C256.73,52,256.88,51.88,257,51.75Z"/><path d="M257.75,52.89v-.27l.54-.17a.17.17,0,0,0,.1-.06.16.16,0,0,0,0-.12V48.4a.14.14,0,0,0,0-.11.21.21,0,0,0-.1-.06l-.54-.18v-.26h2.11v.26l-.55.18a.18.18,0,0,0-.09.06.16.16,0,0,0-.05.11V50h2.51V48.4a.18.18,0,0,0,0-.11l-.11-.06-.54-.18v-.26h2.11v.26l-.54.18-.1.06a.15.15,0,0,0,0,.11v3.87a.21.21,0,0,0,0,.12.27.27,0,0,0,.1.06l.54.17v.27H261v-.27l.54-.17a.2.2,0,0,0,.11-.06.21.21,0,0,0,0-.12V50.46h-2.51v1.81a.21.21,0,0,0,0,.12.21.21,0,0,0,.1.06l.55.17v.27Z"/><path d="M263.69,52.69l0-.74h.15l.26.15a2.55,2.55,0,0,0,.37.19,3.29,3.29,0,0,0,.44.16,1.59,1.59,0,0,0,.43.06,1,1,0,0,0,.81-.27,1.14,1.14,0,0,0,.23-.75,1.27,1.27,0,0,0-.1-.52.81.81,0,0,0-.35-.36,1.36,1.36,0,0,0-.67-.14h-.48V50h.41a1,1,0,0,0,.75-.24,1,1,0,0,0,.25-.74,1,1,0,0,0-.15-.57.64.64,0,0,0-.58-.22,1.45,1.45,0,0,0-.41.06,3.54,3.54,0,0,0-.39.14l-.34.18-.24.15H264l0-.71.49-.19a2.88,2.88,0,0,1,1.71,0,1.46,1.46,0,0,1,.63.4.93.93,0,0,1,.24.65,1.36,1.36,0,0,1-.1.46,1.23,1.23,0,0,1-.36.45,1.88,1.88,0,0,1-.71.34v0a1.81,1.81,0,0,1,.44.09,1.48,1.48,0,0,1,.44.21,1.14,1.14,0,0,1,.34.38,1.24,1.24,0,0,1,.13.58,1.2,1.2,0,0,1-.18.65,1.47,1.47,0,0,1-.47.49,2.43,2.43,0,0,1-1.38.41,3.1,3.1,0,0,1-.64-.06,2.57,2.57,0,0,1-.5-.13Z"/><polyline points="221 43 213 51 252 51" style="fill:none;stroke:#000;stroke-miterlimit:10"/><polyline points="299 43 307 51 268 51" style="fill:none;stroke:#000;stroke-miterlimit:10"/><rect x="312.13" y="0.13" width="103.75" height="29.75" style="fill:#b3bbb3"/><path d="M415.75.25v29.5H312.25V.25h103.5M416,0H312V30H416V0Z"/><rect x="317" y="4" width="16" height="17.81" style="fill:#ffe800"/><rect x="323" y="16.57" width="4" height="8.38" style="fill:#ffe800"/><rect x="317" y="23.9" width="16" height="2.1" style="fill:#ffe800"/><ellipse cx="325" cy="12.38" rx="3" ry="3.14" style="fill:#fff"/><rect x="343" y="3.81" width="16" height="17.81" style="fill:#ffe800"/><rect x="349" y="16.57" width="4" height="8.38" style="fill:#ffe800"/><rect x="343" y="23.9" width="16" height="2.1" style="fill:#ffe800"/><ellipse cx="351" cy="12.38" rx="3" ry="3.14" style="fill:#fff"/><rect x="369" y="4" width="16" height="17.81" style="fill:#ffe800"/><rect x="375" y="16.57" width="4" height="8.38" style="fill:#ffe800"/><rect x="369" y="23.9" width="16" height="2.1" style="fill:#ffe800"/><ellipse cx="377" cy="12.38" rx="3" ry="3.14" style="fill:#fff"/><rect x="395" y="4" width="16" height="17.81" style="fill:#ffe800"/><rect x="401" y="16.57" width="4" height="8.38" style="fill:#ffe800"/><rect x="395" y="23.9" width="16" height="2.1" style="fill:#ffe800"/><ellipse cx="403" cy="12.38" rx="3" ry="3.14" style="fill:#fff"/><path d="M323,38.84l.07-.09,1.61-1.7-.05-.12-2.29-.44-.09,0,.35-1.08.11,0,2.1,1,.13-.1L324.6,34V33.9h1.14V34l-.28,2.31.11.1,2.12-1,.09,0,.36,1.07-.1.05-2.29.44-.05.13,1.59,1.69.06.09-.93.66-.06-.08-1.12-2h-.15l-1.13,2-.07.08Z"/><path d="M347.7,36.22h6.92v.89H347.7Zm3-3h.91v6.9h-.91Z"/><path d="M375.3,37.38V36.32H379v1.06Z"/><text transform="translate(398.66 41.32)" style="font-size:14px;font-family:AdobeSongStd-Light-GBpc-EUC-H, Adobe Song Std;letter-spacing:-0.023018973214285716em">R</text><path d="M361,52h.18v.47a4.72,4.72,0,0,1-.5.35,3.05,3.05,0,0,1-.63.3,2.2,2.2,0,0,1-.73.13,2.69,2.69,0,0,1-1.32-.32,2.07,2.07,0,0,1-.88-.9,3,3,0,0,1-.31-1.43,2.88,2.88,0,0,1,.33-1.41,2.24,2.24,0,0,1,.9-.93,2.54,2.54,0,0,1,1.3-.33,4.14,4.14,0,0,1,.58,0l.63.11.51.11v1.3h-.42l-.14-.73a.15.15,0,0,0-.06-.09l-.12-.07a2,2,0,0,0-.48-.18,2.49,2.49,0,0,0-.57-.06,1.51,1.51,0,0,0-1.18.51,2.3,2.3,0,0,0-.46,1.57,2.5,2.5,0,0,0,.49,1.68,1.77,1.77,0,0,0,1.42.57,1.38,1.38,0,0,0,.55-.1,1.86,1.86,0,0,0,.46-.25Z"/><path d="M361.75,53.09v-.27l.54-.18a.23.23,0,0,0,.1,0,.16.16,0,0,0,0-.12V48.6a.16.16,0,0,0,0-.12l-.1,0-.54-.18V48h2.11v.26l-.55.18a.27.27,0,0,0-.1.06.16.16,0,0,0,0,.11v1.62h2.51V48.6a.16.16,0,0,0,0-.11.24.24,0,0,0-.11-.06l-.54-.18V48h2.11v.26l-.54.18a.21.21,0,0,0-.1.06.12.12,0,0,0,0,.11v3.87a.21.21,0,0,0,0,.12l.1,0,.54.18v.27H365v-.27l.54-.18a.24.24,0,0,0,.11-.06.16.16,0,0,0,0-.11V50.65h-2.51v1.82a.16.16,0,0,0,0,.11.21.21,0,0,0,.1.06l.55.18v.27Z"/><path d="M367.69,52.89l0-.75h.15a1.74,1.74,0,0,0,.26.16l.37.19a3.26,3.26,0,0,0,.44.15,1.61,1.61,0,0,0,.43.07,1,1,0,0,0,.81-.28,1.13,1.13,0,0,0,.23-.74,1.24,1.24,0,0,0-.1-.52.83.83,0,0,0-.35-.37,1.36,1.36,0,0,0-.67-.14h-.48v-.5h.41a1.06,1.06,0,0,0,.75-.24,1,1,0,0,0,.25-.74,1,1,0,0,0-.15-.57.65.65,0,0,0-.58-.23,1.45,1.45,0,0,0-.41.06,2.26,2.26,0,0,0-.39.15l-.34.18a2.08,2.08,0,0,0-.24.15H368l0-.71c.1-.05.27-.11.49-.19a3,3,0,0,1,1.71,0,1.57,1.57,0,0,1,.63.41.92.92,0,0,1,.24.65,1.31,1.31,0,0,1-.1.45,1.26,1.26,0,0,1-.36.46,1.88,1.88,0,0,1-.71.33v.05a1.81,1.81,0,0,1,.44.09,1.51,1.51,0,0,1,.44.22,1.1,1.1,0,0,1,.34.37,1.29,1.29,0,0,1,.13.59,1.2,1.2,0,0,1-.18.65,1.68,1.68,0,0,1-.47.49,2.47,2.47,0,0,1-.66.3,2.51,2.51,0,0,1-.72.11,3.1,3.1,0,0,1-.64-.06A3.57,3.57,0,0,1,368,53Z"/><polyline points="325 43 317 51 356 51" style="fill:none;stroke:#000;stroke-miterlimit:10"/><polyline points="402.5 43.5 411 51 372 51" style="fill:none;stroke:#000;stroke-miterlimit:10"/></svg>