<svg xmlns="http://www.w3.org/2000/svg" xmlns:xlink="http://www.w3.org/1999/xlink" viewBox="0 0 28.25 28.25"><defs><linearGradient id="a" x1="13.66" y1="-43.02" x2="14.51" y2="61.59" gradientUnits="userSpaceOnUse"><stop offset="0" stop-color="#fff"/><stop offset="0.22" stop-color="#fdfeff"/><stop offset="0.3" stop-color="#f6fbfe"/><stop offset="0.36" stop-color="#ebf5fd"/><stop offset="0.4" stop-color="#daedfb"/><stop offset="0.44" stop-color="#c4e3f9"/><stop offset="0.47" stop-color="#a8d6f6"/><stop offset="0.51" stop-color="#88c7f3"/><stop offset="0.53" stop-color="#64b5ef"/><stop offset="0.54" stop-color="#5fb3ef"/><stop offset="0.54" stop-color="#64b5ef"/><stop offset="0.56" stop-color="#88c7f3"/><stop offset="0.59" stop-color="#a8d6f6"/><stop offset="0.62" stop-color="#c4e3f9"/><stop offset="0.65" stop-color="#daedfb"/><stop offset="0.69" stop-color="#ebf5fd"/><stop offset="0.74" stop-color="#f6fbfe"/><stop offset="0.81" stop-color="#fdfeff"/><stop offset="1" stop-color="#fff"/></linearGradient></defs><rect x="0.13" y="0.13" width="28" height="28" style="stroke:#000;stroke-miterlimit:10;stroke-width:0.25px;fill:url(#a)"/><circle cx="14.12" cy="14.13" r="6" style="fill:none;stroke:#d71739;stroke-miterlimit:10;stroke-width:0.75px"/><polyline points="20.13 2.13 14.13 2.13 14.13 8.13" style="fill:none;stroke:#d71739;stroke-miterlimit:10;stroke-width:0.75px"/><polyline points="20.13 26.13 14.13 26.13 14.13 20.13" style="fill:none;stroke:#d71739;stroke-miterlimit:10;stroke-width:0.75px"/><line x1="8.12" y1="26.13" x2="14.13" y2="26.13" style="fill:none;stroke:#d71739;stroke-miterlimit:10;stroke-width:0.75px"/><text transform="translate(14.96 7.61) scale(1.06 1)" style="font-size:8.50741958618164px;fill:#d71739;font-family:AdobeSongStd-Light-GBpc-EUC-H, Adobe Song Std">+</text><path d="M13.86,17.12l-2-5.14a.75.75,0,0,0-.07-.12.27.27,0,0,0-.12-.09l-.43-.17v-.29h2.12v.29l-.66.23,1.44,3.68.15.53h.06l1.58-4.18-.66-.26v-.29H17v.29l-.41.19a.2.2,0,0,0-.12.08.28.28,0,0,0-.08.12l-1.64,4.18-.45.95Z" style="fill:#d71739"/></svg>