<svg xmlns="http://www.w3.org/2000/svg" xmlns:xlink="http://www.w3.org/1999/xlink" viewBox="0 0 32.25 32.25"><defs><linearGradient id="a" x1="15.6" y1="-49.19" x2="16.56" y2="70.38" gradientUnits="userSpaceOnUse"><stop offset="0" stop-color="#fff"/><stop offset="0.22" stop-color="#fdfeff"/><stop offset="0.3" stop-color="#f6fbfe"/><stop offset="0.36" stop-color="#ebf5fd"/><stop offset="0.4" stop-color="#daedfb"/><stop offset="0.44" stop-color="#c4e3f9"/><stop offset="0.47" stop-color="#a8d6f6"/><stop offset="0.51" stop-color="#88c7f3"/><stop offset="0.53" stop-color="#64b5ef"/><stop offset="0.54" stop-color="#5fb3ef"/><stop offset="0.54" stop-color="#64b5ef"/><stop offset="0.56" stop-color="#88c7f3"/><stop offset="0.59" stop-color="#a8d6f6"/><stop offset="0.62" stop-color="#c4e3f9"/><stop offset="0.65" stop-color="#daedfb"/><stop offset="0.69" stop-color="#ebf5fd"/><stop offset="0.74" stop-color="#f6fbfe"/><stop offset="0.81" stop-color="#fdfeff"/><stop offset="1" stop-color="#fff"/></linearGradient></defs><rect x="0.13" y="0.13" width="32" height="32" style="stroke:#000;stroke-miterlimit:10;stroke-width:0.25px;fill:url(#a)"/><circle cx="16.13" cy="15.58" r="13.71" style="fill:none;stroke:#d71739;stroke-miterlimit:10"/><path d="M11.64,10.59V9h2.95v1.55Zm5.9,12a2.92,2.92,0,0,1-2.38-.89,4.5,4.5,0,0,1-.73-2.86V9h1.89v9.73A4.63,4.63,0,0,0,16.46,20a1.17,1.17,0,0,0,.56.69,2.66,2.66,0,0,0,1.23.23,7.22,7.22,0,0,0,1.89-.34l.22,1.66a11,11,0,0,1-1.39.28A10.65,10.65,0,0,1,17.54,22.61Z" style="fill:#d71739"/></svg>