<svg xmlns="http://www.w3.org/2000/svg" xmlns:xlink="http://www.w3.org/1999/xlink" viewBox="0 0 54.25 28.43"><defs><linearGradient id="a" x1="26.66" y1="-43.32" x2="27.51" y2="62.08" gradientUnits="userSpaceOnUse"><stop offset="0" stop-color="#fff"/><stop offset="0.22" stop-color="#fdfeff"/><stop offset="0.3" stop-color="#f6fbfe"/><stop offset="0.36" stop-color="#ebf5fd"/><stop offset="0.4" stop-color="#daedfb"/><stop offset="0.44" stop-color="#c4e3f9"/><stop offset="0.47" stop-color="#a8d6f6"/><stop offset="0.51" stop-color="#88c7f3"/><stop offset="0.53" stop-color="#64b5ef"/><stop offset="0.54" stop-color="#5fb3ef"/><stop offset="0.54" stop-color="#64b5ef"/><stop offset="0.56" stop-color="#88c7f3"/><stop offset="0.59" stop-color="#a8d6f6"/><stop offset="0.62" stop-color="#c4e3f9"/><stop offset="0.65" stop-color="#daedfb"/><stop offset="0.69" stop-color="#ebf5fd"/><stop offset="0.74" stop-color="#f6fbfe"/><stop offset="0.81" stop-color="#fdfeff"/><stop offset="1" stop-color="#fff"/></linearGradient></defs><rect x="0.13" y="0.25" width="54" height="28" style="stroke:#000;stroke-miterlimit:10;stroke-width:0.25px;fill:url(#a)"/><circle cx="27.13" cy="14.25" r="6" style="fill:none;stroke:#d71739;stroke-miterlimit:10;stroke-width:0.75px"/><polyline points="33.13 2.25 27.13 2.25 27.13 8.25" style="fill:none;stroke:#d71739;stroke-miterlimit:10;stroke-width:0.75px"/><polyline points="27.13 20.25 27.13 26.25 33.13 26.25" style="fill:none;stroke:#d71739;stroke-miterlimit:10;stroke-width:0.75px"/><text transform="translate(27.74 7.92)" style="font-size:9px;fill:#d71739;font-family:AdobeSongStd-Light-GBpc-EUC-H, Adobe Song Std">+</text><text transform="translate(28.01 26.14)" style="font-size:9px;fill:#d71739;font-family:AdobeSongStd-Light-GBpc-EUC-H, Adobe Song Std">-</text><path d="M26.86,18.11l-2-5.14a.75.75,0,0,0-.07-.12.27.27,0,0,0-.12-.09l-.43-.17V12.3h2.12v.29l-.66.23,1.44,3.68.15.53h.06l1.58-4.18-.66-.26V12.3H30v.29l-.41.19a.2.2,0,0,0-.12.08.28.28,0,0,0-.08.12l-1.64,4.18-.45.95Z" style="fill:#d71739"/></svg>