<svg xmlns="http://www.w3.org/2000/svg" viewBox="0 0 286.25 57.25"><rect x="0.13" y="0.13" width="286" height="57" style="fill:#fff;stroke:#000;stroke-miterlimit:10;stroke-width:0.25px"/><rect x="208.25" y="0.25" width="77.75" height="29.75" style="fill:#b2bab2"/><path d="M285.88.38v29.5h-77.5V.38h77.5m.24-.26h-78v30h78V.12Z"/><rect x="212.12" y="4.13" width="16" height="17.81" style="fill:#ffe700"/><rect x="218.12" y="16.7" width="4" height="8.38" style="fill:#ffe700"/><rect x="212.13" y="24.03" width="16" height="2.1" style="fill:#ffe700"/><ellipse cx="220.13" cy="12.51" rx="3" ry="3.14" style="fill:#fff"/><rect x="238.9" y="4.13" width="16" height="17.81" style="fill:#ffe700"/><rect x="244.9" y="16.7" width="4" height="8.38" style="fill:#ffe700"/><rect x="238.9" y="24.03" width="16" height="2.1" style="fill:#ffe700"/><ellipse cx="246.9" cy="12.51" rx="3" ry="3.14" style="fill:#fff"/><rect x="265.9" y="4.13" width="16" height="17.81" style="fill:#ffe700"/><rect x="271.9" y="16.7" width="4" height="8.38" style="fill:#ffe700"/><rect x="265.9" y="24.03" width="16" height="2.1" style="fill:#ffe700"/><ellipse cx="273.9" cy="12.51" rx="3" ry="3.14" style="fill:#fff"/><rect x="130.25" y="0.25" width="77.75" height="29.75" style="fill:#b2bab2"/><path d="M207.88.38v29.5h-77.5V.38h77.5m.24-.26h-78v30h78V.12Z"/><rect x="133.12" y="3.79" width="16" height="17.81" style="fill:#ffe700"/><rect x="139.12" y="16.36" width="4" height="8.38" style="fill:#ffe700"/><rect x="133.13" y="23.7" width="16" height="2.1" style="fill:#ffe700"/><ellipse cx="141.13" cy="12.17" rx="3" ry="3.14" style="fill:#fff"/><rect x="159.9" y="3.79" width="16" height="17.81" style="fill:#ffe700"/><rect x="165.9" y="16.36" width="4" height="8.38" style="fill:#ffe700"/><rect x="159.9" y="23.7" width="16" height="2.1" style="fill:#ffe700"/><ellipse cx="167.9" cy="12.17" rx="3" ry="3.14" style="fill:#fff"/><rect x="186.9" y="3.79" width="16" height="17.81" style="fill:#ffe700"/><rect x="192.9" y="16.36" width="4" height="8.38" style="fill:#ffe700"/><rect x="186.9" y="23.7" width="16" height="2.1" style="fill:#ffe700"/><ellipse cx="194.9" cy="12.17" rx="3" ry="3.14" style="fill:#fff"/><rect x="52.25" y="0.25" width="77.75" height="29.75" style="fill:#b2bab2"/><path d="M129.88.38v29.5H52.38V.38h77.5m.24-.26h-78v30h78V.12Z"/><rect x="56.13" y="4.13" width="16" height="17.81" style="fill:#ffe700"/><rect x="62.13" y="16.7" width="4" height="8.38" style="fill:#ffe700"/><rect x="56.13" y="24.03" width="16" height="2.1" style="fill:#ffe700"/><ellipse cx="64.13" cy="12.51" rx="3" ry="3.14" style="fill:#fff"/><rect x="82.9" y="4.13" width="16" height="17.81" style="fill:#ffe700"/><rect x="88.9" y="16.7" width="4" height="8.38" style="fill:#ffe700"/><rect x="82.9" y="24.03" width="16" height="2.1" style="fill:#ffe700"/><ellipse cx="90.9" cy="12.51" rx="3" ry="3.14" style="fill:#fff"/><rect x="109.9" y="4.13" width="16" height="17.81" style="fill:#ffe700"/><rect x="115.9" y="16.7" width="4" height="8.38" style="fill:#ffe700"/><rect x="109.9" y="24.03" width="16" height="2.1" style="fill:#ffe700"/><ellipse cx="117.9" cy="12.51" rx="3" ry="3.14" style="fill:#fff"/><rect x="0.13" y="0.13" width="52" height="30" style="fill:#b2bab2;stroke:#000;stroke-miterlimit:10;stroke-width:0.25px"/><rect x="3.96" y="4.29" width="16" height="17.81" style="fill:#ffe700"/><rect x="9.96" y="16.86" width="4" height="8.38" style="fill:#ffe700"/><rect x="3.96" y="24.2" width="16" height="2.1" style="fill:#ffe700"/><ellipse cx="11.96" cy="12.67" rx="3" ry="3.14" style="fill:#fff"/><rect x="32.96" y="4.29" width="16" height="17.81" style="fill:#ffe700"/><rect x="38.96" y="16.86" width="4" height="8.38" style="fill:#ffe700"/><rect x="32.96" y="24.2" width="16" height="2.1" style="fill:#ffe700"/><ellipse cx="40.96" cy="12.67" rx="3" ry="3.14" style="fill:#fff"/><path d="M42.44,38.88V37.49a.15.15,0,0,0,0-.12.2.2,0,0,0-.11-.06l-.79-.21v-.29h2.43v.29l-.51.21a.27.27,0,0,0-.1.06.17.17,0,0,0,0,.12v1.3a4.19,4.19,0,0,0,0,.42,6.65,6.65,0,0,1-1,.29,5.83,5.83,0,0,1-1.18.12,2.82,2.82,0,0,1-1.38-.34,2.52,2.52,0,0,1-1-1,3.27,3.27,0,0,1-.37-1.63,3.22,3.22,0,0,1,.37-1.59,2.71,2.71,0,0,1,1-1,2.93,2.93,0,0,1,1.46-.37,5.33,5.33,0,0,1,.71,0,5,5,0,0,1,.66.1c.22,0,.45.1.69.16v1.46h-.47l-.15-.83a.17.17,0,0,0-.07-.1l-.11-.06a3.58,3.58,0,0,0-.63-.2,3.42,3.42,0,0,0-.7-.08,1.83,1.83,0,0,0-1,.26,1.71,1.71,0,0,0-.66.78,3.27,3.27,0,0,0-.23,1.31,3.71,3.71,0,0,0,.24,1.39,2.1,2.1,0,0,0,.7.94,1.82,1.82,0,0,0,1.1.34,2.59,2.59,0,0,0,.89-.16Z"/><path d="M58.42,39.27l0-.84h.17a2.32,2.32,0,0,0,.28.18l.4.21a2.48,2.48,0,0,0,.48.17,1.59,1.59,0,0,0,.48.07,1.07,1.07,0,0,0,.89-.33,1.48,1.48,0,0,0,.25-.9,1.23,1.23,0,0,0-.22-.77,1.12,1.12,0,0,0-.58-.41,2.3,2.3,0,0,0-.81-.13l-.39,0-.32.07-.22.08-.19,0,.25-2.87H62v.73h-2.7l-.14,1.41a2.47,2.47,0,0,1,.41-.09l.41,0a2.85,2.85,0,0,1,1.13.21,1.74,1.74,0,0,1,1.07,1.7,1.6,1.6,0,0,1-.19.74,1.91,1.91,0,0,1-.5.6,2.65,2.65,0,0,1-.69.4,2.39,2.39,0,0,1-.79.14,3.29,3.29,0,0,1-.73-.07,2.86,2.86,0,0,1-.55-.15Z"/><path d="M65.18,39.57l-2-5.14a.75.75,0,0,0-.07-.12.26.26,0,0,0-.13-.08l-.42-.18v-.29h2.12v.29l-.67.24L65.43,38l.15.53h.06l1.58-4.18-.67-.26v-.29h1.8v.29l-.42.19a.42.42,0,0,0-.12.08.57.57,0,0,0-.08.13L66.1,38.62l-.45,1Z"/><path d="M85.87,39.49v-.3l.62-.19a.41.41,0,0,0,.11-.07.22.22,0,0,0,0-.13V34.45a.22.22,0,0,0,0-.13.41.41,0,0,0-.11-.07l-.62-.2v-.29H88.5a3.19,3.19,0,0,1,.73.08,2.83,2.83,0,0,1,.77.27,2.61,2.61,0,0,1,.69.52,2.52,2.52,0,0,1,.5.83,3.51,3.51,0,0,1,.18,1.19A3,3,0,0,1,91,38.26a2.39,2.39,0,0,1-1,.93,3.5,3.5,0,0,1-1.46.3Zm1.61-5.25V39h1A1.76,1.76,0,0,0,90,38.43a2.64,2.64,0,0,0,.47-1.66,3.13,3.13,0,0,0-.27-1.35,2,2,0,0,0-.76-.88,2.2,2.2,0,0,0-1.16-.3Z"/><path d="M92,39.49V39c.55-.44,1-.86,1.46-1.27a6.19,6.19,0,0,0,1-1.2,2.15,2.15,0,0,0,.37-1.17,2,2,0,0,0-.08-.63.76.76,0,0,0-.28-.39.82.82,0,0,0-.5-.13,1.59,1.59,0,0,0-.48.07,2.34,2.34,0,0,0-.46.19,3.61,3.61,0,0,0-.39.22l-.29.19h-.18l0-.81.36-.16a2.84,2.84,0,0,1,.56-.18,2.9,2.9,0,0,1,.74-.08,2.35,2.35,0,0,1,1,.19,1.57,1.57,0,0,1,.68.56,1.44,1.44,0,0,1,.26.86,2,2,0,0,1-.23.92,3.84,3.84,0,0,1-.61.85,10.51,10.51,0,0,1-.89.85L93,38.76v.07l.5-.06h1.79a.21.21,0,0,0,.15,0,.27.27,0,0,0,.06-.12l.13-.64H96l0,1.52Z"/><path d="M119.39,38.88V37.49a.17.17,0,0,0,0-.12.17.17,0,0,0-.1-.06l-.79-.21v-.29h2.42v.29l-.5.21a.3.3,0,0,0-.11.06.17.17,0,0,0-.05.12v.66c0,.25,0,.46,0,.64s0,.32,0,.42a6.65,6.65,0,0,1-1,.29,5.76,5.76,0,0,1-1.18.13,2.83,2.83,0,0,1-1.38-.35,2.49,2.49,0,0,1-1-1,3.27,3.27,0,0,1-.38-1.63,3.22,3.22,0,0,1,.37-1.59,2.71,2.71,0,0,1,1-1,3,3,0,0,1,1.46-.37c.25,0,.49,0,.71,0a4.92,4.92,0,0,1,.67.1c.22,0,.45.1.69.16v1.46h-.48l-.14-.82a.16.16,0,0,0-.07-.11l-.11-.06a4,4,0,0,0-.64-.2,3.27,3.27,0,0,0-.7-.08,1.85,1.85,0,0,0-1,.26,1.64,1.64,0,0,0-.65.78,3.1,3.1,0,0,0-.24,1.31,3.71,3.71,0,0,0,.24,1.39,2.18,2.18,0,0,0,.7.94,1.82,1.82,0,0,0,1.1.34,2.57,2.57,0,0,0,.5,0,2.83,2.83,0,0,0,.4-.11Z"/><path d="M196.39,38.88V37.49a.17.17,0,0,0,0-.12.17.17,0,0,0-.1-.06l-.79-.21v-.29h2.42v.29l-.5.21a.3.3,0,0,0-.11.06.17.17,0,0,0,0,.12v.66c0,.25,0,.46,0,.64s0,.32,0,.42a6.65,6.65,0,0,1-1,.29,5.84,5.84,0,0,1-1.18.13,2.83,2.83,0,0,1-1.38-.35,2.49,2.49,0,0,1-1-1,3.27,3.27,0,0,1-.38-1.63,3.22,3.22,0,0,1,.37-1.59,2.71,2.71,0,0,1,1-1,3,3,0,0,1,1.46-.37c.25,0,.49,0,.71,0a5.16,5.16,0,0,1,.67.1c.22,0,.45.1.69.16v1.46h-.48l-.14-.82a.21.21,0,0,0-.07-.11l-.11-.06a4,4,0,0,0-.64-.2,3.34,3.34,0,0,0-.7-.08,1.83,1.83,0,0,0-1,.26,1.64,1.64,0,0,0-.65.78,3.1,3.1,0,0,0-.24,1.31,3.71,3.71,0,0,0,.24,1.39,2.18,2.18,0,0,0,.7.94,1.82,1.82,0,0,0,1.1.34,2.57,2.57,0,0,0,.5,0,3.26,3.26,0,0,0,.4-.11Z"/><path d="M275.39,38.88V37.49a.17.17,0,0,0-.05-.12.17.17,0,0,0-.1-.06l-.79-.21v-.29h2.42v.29l-.5.21a.3.3,0,0,0-.11.06.17.17,0,0,0-.05.12v.66c0,.25,0,.46,0,.64s0,.32,0,.42a6.65,6.65,0,0,1-1,.29,5.84,5.84,0,0,1-1.18.13,2.83,2.83,0,0,1-1.38-.35,2.49,2.49,0,0,1-1-1,3.27,3.27,0,0,1-.38-1.63,3.22,3.22,0,0,1,.37-1.59,2.71,2.71,0,0,1,1-1,3,3,0,0,1,1.46-.37c.25,0,.49,0,.71,0a5.16,5.16,0,0,1,.67.1c.22,0,.45.1.69.16v1.46h-.48l-.14-.82a.21.21,0,0,0-.07-.11l-.11-.06a4,4,0,0,0-.64-.2,3.34,3.34,0,0,0-.7-.08,1.83,1.83,0,0,0-1,.26,1.64,1.64,0,0,0-.65.78,3.1,3.1,0,0,0-.24,1.31,3.71,3.71,0,0,0,.24,1.39,2.18,2.18,0,0,0,.7.94,1.82,1.82,0,0,0,1.1.34,2.57,2.57,0,0,0,.5,0,3.26,3.26,0,0,0,.4-.11Z"/><path d="M162.87,39.49v-.3l.62-.19a.41.41,0,0,0,.11-.07.17.17,0,0,0,0-.13V34.45a.17.17,0,0,0,0-.13.41.41,0,0,0-.11-.07l-.62-.2v-.29h2.63a3.19,3.19,0,0,1,.73.08,2.83,2.83,0,0,1,.77.27,2.61,2.61,0,0,1,.69.52,2.52,2.52,0,0,1,.5.83,3.51,3.51,0,0,1,.18,1.19,3,3,0,0,1-.39,1.61,2.39,2.39,0,0,1-1,.93,3.5,3.5,0,0,1-1.46.3Zm1.61-5.25V39h1a1.76,1.76,0,0,0,1.47-.58,2.64,2.64,0,0,0,.47-1.66,3.13,3.13,0,0,0-.27-1.35,2,2,0,0,0-.76-.88,2.2,2.2,0,0,0-1.16-.3Z"/><path d="M169,39.27l0-.84h.17l.29.18a4.44,4.44,0,0,0,.91.39,2.12,2.12,0,0,0,.49.06,1.17,1.17,0,0,0,.91-.3,1.26,1.26,0,0,0,.26-.84,1.37,1.37,0,0,0-.12-.58.83.83,0,0,0-.39-.42,1.56,1.56,0,0,0-.75-.15h-.54V36.2h.46a1.15,1.15,0,0,0,.84-.27,1.1,1.1,0,0,0,.28-.83,1.13,1.13,0,0,0-.16-.64.75.75,0,0,0-.66-.25,1.82,1.82,0,0,0-.46.06,2.35,2.35,0,0,0-.44.17c-.14.06-.27.13-.38.19l-.27.18h-.17l0-.8a5.57,5.57,0,0,1,.55-.22,2.91,2.91,0,0,1,1-.13,3,3,0,0,1,1,.15,1.63,1.63,0,0,1,.7.45,1.06,1.06,0,0,1,.27.73,1.52,1.52,0,0,1-.11.52,1.47,1.47,0,0,1-.41.51,2.13,2.13,0,0,1-.8.38v.05a3.16,3.16,0,0,1,.5.1,2.3,2.3,0,0,1,.5.24,1.19,1.19,0,0,1,.37.43,1.28,1.28,0,0,1,.15.65,1.33,1.33,0,0,1-.2.74,1.74,1.74,0,0,1-.53.55,2.57,2.57,0,0,1-.73.34,2.86,2.86,0,0,1-.82.12,3.14,3.14,0,0,1-.72-.07,4.56,4.56,0,0,1-.56-.14Z"/><path d="M7.4,39.49v-.3L8,39l.1-.07a.17.17,0,0,0,.05-.13V34.45a.17.17,0,0,0-.05-.13L8,34.25l-.62-.2v-.29H10a3.28,3.28,0,0,1,.74.08,3,3,0,0,1,.77.27,2.61,2.61,0,0,1,.69.52,2.5,2.5,0,0,1,.49.83,3.27,3.27,0,0,1,.19,1.19,3,3,0,0,1-.39,1.61,2.36,2.36,0,0,1-1,.93,3.42,3.42,0,0,1-1.45.3ZM9,34.24V39h1a1.76,1.76,0,0,0,1.47-.58A2.64,2.64,0,0,0,12,36.77a3.13,3.13,0,0,0-.27-1.35,2.12,2.12,0,0,0-.76-.88,2.2,2.2,0,0,0-1.16-.3Z"/><path d="M13.86,39.49V39.2l.88-.21a.18.18,0,0,0,.16-.2V35.12l0-.56h-.07l-1.12.19v-.33l1.62-.74h.36c0,.18,0,.39,0,.62s0,.45,0,.65v3.84a.26.26,0,0,0,0,.14.2.2,0,0,0,.11.06l.85.21v.29Z"/><path d="M136.42,39.27l0-.84h.17a2.32,2.32,0,0,0,.28.18l.4.21a2.48,2.48,0,0,0,.48.17,1.59,1.59,0,0,0,.48.07,1.07,1.07,0,0,0,.89-.33,1.48,1.48,0,0,0,.25-.9,1.23,1.23,0,0,0-.22-.77,1.12,1.12,0,0,0-.58-.41,2.3,2.3,0,0,0-.81-.13l-.39,0-.32.07-.22.08-.19,0,.25-2.87H140v.73h-2.7l-.14,1.41a2.47,2.47,0,0,1,.41-.09l.41,0a2.81,2.81,0,0,1,1.13.21,1.74,1.74,0,0,1,1.07,1.7,1.6,1.6,0,0,1-.19.74,1.91,1.91,0,0,1-.5.6,2.65,2.65,0,0,1-.69.4,2.39,2.39,0,0,1-.79.14,3.29,3.29,0,0,1-.73-.07,2.86,2.86,0,0,1-.55-.15Z"/><path d="M143.18,39.57l-2-5.14a.75.75,0,0,0-.07-.12.26.26,0,0,0-.13-.08l-.42-.18v-.29h2.12v.29l-.67.24L143.43,38l.15.53h.06l1.58-4.18-.67-.26v-.29h1.8v.29l-.42.19a.42.42,0,0,0-.12.08.57.57,0,0,0-.08.13l-1.63,4.17-.45,1Z"/><path d="M215.42,39.27l0-.84h.17a2.32,2.32,0,0,0,.28.18l.4.21a2.48,2.48,0,0,0,.48.17,1.59,1.59,0,0,0,.48.07,1.07,1.07,0,0,0,.89-.33,1.48,1.48,0,0,0,.25-.9,1.23,1.23,0,0,0-.22-.77,1.12,1.12,0,0,0-.58-.41,2.3,2.3,0,0,0-.81-.13l-.39,0-.32.07-.22.08-.19,0,.25-2.87H219v.73h-2.7l-.14,1.41a2.47,2.47,0,0,1,.41-.09l.41,0a2.81,2.81,0,0,1,1.13.21,1.74,1.74,0,0,1,1.07,1.7,1.6,1.6,0,0,1-.19.74,1.91,1.91,0,0,1-.5.6,2.65,2.65,0,0,1-.69.4,2.39,2.39,0,0,1-.79.14,3.29,3.29,0,0,1-.73-.07,2.86,2.86,0,0,1-.55-.15Z"/><path d="M222.18,39.57l-2-5.14a.75.75,0,0,0-.07-.12.26.26,0,0,0-.13-.08l-.42-.18v-.29h2.12v.29l-.67.24L222.43,38l.15.53h.06l1.58-4.18-.67-.26v-.29h1.8v.29l-.42.19a.42.42,0,0,0-.12.08.57.57,0,0,0-.08.13l-1.63,4.17-.45,1Z"/><path d="M241.87,39.49v-.3l.62-.19a.41.41,0,0,0,.11-.07.22.22,0,0,0,0-.13V34.45a.22.22,0,0,0,0-.13.41.41,0,0,0-.11-.07l-.62-.2v-.29h2.63a3.19,3.19,0,0,1,.73.08,2.83,2.83,0,0,1,.77.27,2.61,2.61,0,0,1,.69.52,2.52,2.52,0,0,1,.5.83,3.51,3.51,0,0,1,.18,1.19,3,3,0,0,1-.39,1.61,2.39,2.39,0,0,1-1,.93,3.5,3.5,0,0,1-1.46.3Zm1.61-5.25V39h1a1.76,1.76,0,0,0,1.47-.58,2.64,2.64,0,0,0,.47-1.66,3.13,3.13,0,0,0-.27-1.35,2,2,0,0,0-.76-.88,2.2,2.2,0,0,0-1.16-.3Z"/><path d="M248,37.82V37.3l3-3.6h.5v5.12a.17.17,0,0,0,.05.13.2.2,0,0,0,.11.06l.5.19v.29H250V39.2l.52-.19a.2.2,0,0,0,.11-.06.22.22,0,0,0,0-.13V35.39l.06-.61h-.07l-2.1,2.49v.06l.49-.06h3.38v.55Z"/><path d="M119.24,53.12v-.29l.61-.2a.26.26,0,0,0,.11-.07.17.17,0,0,0,0-.13V48.08a.17.17,0,0,0,0-.13.41.41,0,0,0-.11-.07l-.61-.2v-.29h2.62a3.88,3.88,0,0,1,.73.08,2.83,2.83,0,0,1,.77.27,2.2,2.2,0,0,1,.69.53,2.31,2.31,0,0,1,.5.82,3.49,3.49,0,0,1,.19,1.19,3,3,0,0,1-.39,1.61,2.36,2.36,0,0,1-1,.93,3.47,3.47,0,0,1-1.46.3Zm1.6-5.25v4.78h1a1.8,1.8,0,0,0,1.48-.59,2.62,2.62,0,0,0,.46-1.66,3.13,3.13,0,0,0-.27-1.35,2,2,0,0,0-.76-.87,2.08,2.08,0,0,0-1.15-.31Z"/><path d="M125.29,53.12v-.29l.61-.16a.24.24,0,0,0,.11-.06.19.19,0,0,0,0-.13V49.69a.17.17,0,0,0,0-.13.24.24,0,0,0-.13-.08l-.58-.19V49l1.56-.22v3.7a.19.19,0,0,0,0,.13.2.2,0,0,0,.11.06l.6.16v.29Zm1.1-5.14a.72.72,0,0,1-.29-.06.76.76,0,0,1-.21-.19.48.48,0,0,1-.08-.27.5.5,0,0,1,.17-.4.66.66,0,0,1,.41-.14.71.71,0,0,1,.43.13.45.45,0,0,1,.17.37.56.56,0,0,1-.08.3.48.48,0,0,1-.21.19A.64.64,0,0,1,126.39,48Z"/><path d="M129.94,51.63a2.31,2.31,0,0,1-.46-.05,1.22,1.22,0,0,1-.32-.08.37.37,0,0,0-.19.15.39.39,0,0,0-.1.29.5.5,0,0,0,.1.28.46.46,0,0,0,.22.16h1.5a1.89,1.89,0,0,1,.87.17A1,1,0,0,1,132,53a1,1,0,0,1,.14.51,1.32,1.32,0,0,1-.3.85,2.15,2.15,0,0,1-.82.57,3.06,3.06,0,0,1-1.15.21,3.65,3.65,0,0,1-1-.12,1.63,1.63,0,0,1-.69-.38A.8.8,0,0,1,128,54a.83.83,0,0,1,.27-.65,1.43,1.43,0,0,1,.62-.33V53a1.28,1.28,0,0,1-.29-.14.85.85,0,0,1-.25-.25.61.61,0,0,1-.1-.36.83.83,0,0,1,.11-.43,1,1,0,0,1,.29-.28,1.07,1.07,0,0,1,.34-.14v0a2,2,0,0,1-.31-.24,1.2,1.2,0,0,1-.28-.37,1.25,1.25,0,0,1-.11-.53,1.41,1.41,0,0,1,.21-.77,1.48,1.48,0,0,1,.6-.53,2,2,0,0,1,.91-.19,3.89,3.89,0,0,1,.51,0l.44.08h1.42l0,.51-1-.07v0a2.28,2.28,0,0,1,.27.39,1.27,1.27,0,0,1,.1.52,1.32,1.32,0,0,1-.46,1A1.83,1.83,0,0,1,129.94,51.63Zm.13,3a2.52,2.52,0,0,0,.67-.09,1.21,1.21,0,0,0,.53-.3.74.74,0,0,0,.21-.55.68.68,0,0,0-.2-.44.86.86,0,0,0-.65-.22h-1.38a.74.74,0,0,0-.33.23.78.78,0,0,0-.16.51.64.64,0,0,0,.14.42.82.82,0,0,0,.34.26,1.64,1.64,0,0,0,.43.13A2.08,2.08,0,0,0,130.07,54.65ZM130,51.26a1,1,0,0,0,.49-.12.85.85,0,0,0,.3-.37,1.6,1.6,0,0,0,.11-.62,1.1,1.1,0,0,0-.25-.8.83.83,0,0,0-.65-.27.88.88,0,0,0-.42.11.89.89,0,0,0-.31.35,1.33,1.33,0,0,0-.11.61,1.26,1.26,0,0,0,.23.84A.78.78,0,0,0,130,51.26Z"/><path d="M132.73,53.12v-.29l.61-.16a.23.23,0,0,0,.12-.06.18.18,0,0,0,0-.13V49.69a.14.14,0,0,0-.05-.13.25.25,0,0,0-.12-.08l-.59-.19V49l1.56-.22v3.7a.19.19,0,0,0,0,.13.24.24,0,0,0,.11.06l.6.16v.29Zm1.1-5.14a.64.64,0,0,1-.28-.06.67.67,0,0,1-.22-.19.52.52,0,0,1,.1-.67.63.63,0,0,1,.4-.14.71.71,0,0,1,.43.13.43.43,0,0,1,.17.37.56.56,0,0,1-.08.3.48.48,0,0,1-.21.19A.64.64,0,0,1,133.83,48Z"/><path d="M138.32,48.83l0,.46H136.8v2.79a.34.34,0,0,0,.15.3.86.86,0,0,0,.33.17,1.57,1.57,0,0,0,.32.05,1.39,1.39,0,0,0,.33-.05,1,1,0,0,0,.27-.09h.13v.33a1.75,1.75,0,0,1-.25.15l-.43.18a1.73,1.73,0,0,1-.49.08,1.7,1.7,0,0,1-.57-.1,1,1,0,0,1-.43-.3.71.71,0,0,1-.16-.45V49.29h-.69v-.37l.39-.08a.48.48,0,0,0,.27-.17.65.65,0,0,0,.12-.4l0-.58.67-.13v1.27Z"/><path d="M140,53.21a1.24,1.24,0,0,1-.66-.17,1.23,1.23,0,0,1-.43-.45,1.31,1.31,0,0,1-.14-.59,1.13,1.13,0,0,1,.2-.69,1.5,1.5,0,0,1,.52-.45,2.78,2.78,0,0,1,.68-.25,3.23,3.23,0,0,1,.66-.07H141l.27,0,.19,0V50a.74.74,0,0,0-.23-.62,1,1,0,0,0-.58-.17,1.22,1.22,0,0,0-.41.07,2.26,2.26,0,0,0-.39.18l-.34.21-.27.18h-.16l0-.78.47-.17a3.71,3.71,0,0,1,.53-.14,4.19,4.19,0,0,1,.65,0,2.67,2.67,0,0,1,.75.11,1.21,1.21,0,0,1,.58.41,1.42,1.42,0,0,1,.23.86v2.22a.29.29,0,0,0,.12.24.4.4,0,0,0,.26.1.59.59,0,0,0,.19,0l.2-.08h.06v.34l-.22.14-.3.15a.88.88,0,0,1-.29.06.77.77,0,0,1-.56-.18.69.69,0,0,1-.19-.55h0A1.55,1.55,0,0,1,141,53a2,2,0,0,1-.54.21A2.79,2.79,0,0,1,140,53.21Zm.39-.58a1.69,1.69,0,0,0,.59-.11,1,1,0,0,0,.5-.35V51a5.5,5.5,0,0,0-1,.08,1.33,1.33,0,0,0-.66.26.68.68,0,0,0-.23.56.8.8,0,0,0,.12.47.61.61,0,0,0,.3.23A.91.91,0,0,0,140.38,52.63Z"/><path d="M143.22,53.12v-.29l.61-.16a.24.24,0,0,0,.11-.06.18.18,0,0,0,0-.13V47.73a.14.14,0,0,0,0-.13.32.32,0,0,0-.12-.08l-.62-.23V47l1.59-.07v5.54a.19.19,0,0,0,.05.13.24.24,0,0,0,.11.06l.59.16v.29Z"/><path d="M153.1,53.12v-.29l.65-.2a.3.3,0,0,0,.11-.07.17.17,0,0,0,0-.13V48.08a.17.17,0,0,0,0-.13.41.41,0,0,0-.11-.07l-.65-.2v-.29h2.44v.29l-.64.2a.3.3,0,0,0-.11.07.17.17,0,0,0,0,.13v4.35a.17.17,0,0,0,0,.13.21.21,0,0,0,.11.07l.64.2v.29Z"/><path d="M156.58,54.84H156L158.79,47h.61Z"/><path d="M163,53.26a2.94,2.94,0,0,1-1.51-.37,2.37,2.37,0,0,1-.94-1,3.74,3.74,0,0,1-.32-1.6,3.5,3.5,0,0,1,.33-1.55,2.57,2.57,0,0,1,1-1.06,3.21,3.21,0,0,1,3,0,2.38,2.38,0,0,1,.91,1.07,3.73,3.73,0,0,1,.3,1.53,3.66,3.66,0,0,1-.16,1.1,2.8,2.8,0,0,1-.5,1,2.23,2.23,0,0,1-.86.68A2.84,2.84,0,0,1,163,53.26Zm.07-.47a1.57,1.57,0,0,0,1-.31,1.8,1.8,0,0,0,.6-.85,3.65,3.65,0,0,0,.19-1.25,4.27,4.27,0,0,0-.21-1.41,2,2,0,0,0-.63-.92,1.8,1.8,0,0,0-1.08-.32,1.55,1.55,0,0,0-1,.32,2,2,0,0,0-.58.87,3.7,3.7,0,0,0-.18,1.18,4.27,4.27,0,0,0,.21,1.41,2,2,0,0,0,.63.94A1.7,1.7,0,0,0,163.08,52.79Z"/><polyline points="12.13 43.13 4.13 51.13 119.23 51.13" style="fill:none;stroke:#000;stroke-miterlimit:10"/><polyline points="273.9 43.13 281.9 51.13 166.13 51.13" style="fill:none;stroke:#000;stroke-miterlimit:10"/></svg>