<svg xmlns="http://www.w3.org/2000/svg" xmlns:xlink="http://www.w3.org/1999/xlink" viewBox="0 0 78.25 28.25"><defs><linearGradient id="a" x1="38.66" y1="-43.84" x2="39.51" y2="62.27" gradientUnits="userSpaceOnUse"><stop offset="0" stop-color="#fff"/><stop offset="0.22" stop-color="#fdfeff"/><stop offset="0.3" stop-color="#f6fbfe"/><stop offset="0.36" stop-color="#ebf5fd"/><stop offset="0.4" stop-color="#daedfb"/><stop offset="0.44" stop-color="#c4e3f9"/><stop offset="0.47" stop-color="#a8d6f6"/><stop offset="0.51" stop-color="#88c7f3"/><stop offset="0.53" stop-color="#64b5ef"/><stop offset="0.54" stop-color="#5fb3ef"/><stop offset="0.54" stop-color="#64b5ef"/><stop offset="0.56" stop-color="#88c7f3"/><stop offset="0.59" stop-color="#a8d6f6"/><stop offset="0.62" stop-color="#c4e3f9"/><stop offset="0.65" stop-color="#daedfb"/><stop offset="0.69" stop-color="#ebf5fd"/><stop offset="0.74" stop-color="#f6fbfe"/><stop offset="0.81" stop-color="#fdfeff"/><stop offset="1" stop-color="#fff"/></linearGradient></defs><rect x="0.13" y="0.13" width="78" height="28" style="stroke:#000;stroke-miterlimit:10;stroke-width:0.25px;fill:url(#a)"/><circle cx="39.13" cy="14.13" r="12" style="fill:none;stroke:#d71739;stroke-miterlimit:10;stroke-width:0.75px"/><path d="M34.23,20.07l-.06-3.74h1.16l.41,2a.56.56,0,0,0,.18.28l.26.21a7.76,7.76,0,0,0,.81.45,5.42,5.42,0,0,0,.93.35,4.47,4.47,0,0,0,3.41-.53,2.17,2.17,0,0,0,.87-1.82,2,2,0,0,0-.52-1.44,3.77,3.77,0,0,0-1.39-.93q-.84-.35-1.65-.6c-.55-.17-1.08-.36-1.6-.57a4.42,4.42,0,0,1-1.86-1.38,3.44,3.44,0,0,1-.67-2.15,3.32,3.32,0,0,1,.63-2,4.28,4.28,0,0,1,1.7-1.4,5.56,5.56,0,0,1,2.41-.51,12.59,12.59,0,0,1,1.53.09c.48.07.95.15,1.39.25l1.25.29v3.59H42.28l-.39-1.92a.48.48,0,0,0-.18-.26,2,2,0,0,0-.26-.21,2.28,2.28,0,0,0-.56-.31,3.58,3.58,0,0,0-.72-.23,4,4,0,0,0-.86-.09,3.43,3.43,0,0,0-2.16.59,1.76,1.76,0,0,0-.77,1.43,2.62,2.62,0,0,0,.42,1.43A3.13,3.13,0,0,0,38.4,12l1.53.53c.5.17,1,.38,1.64.63a6.06,6.06,0,0,1,1.26.71,3.61,3.61,0,0,1,1,1.13,3.45,3.45,0,0,1,.39,1.72,4,4,0,0,1-.56,2,4.12,4.12,0,0,1-1.76,1.57,7.07,7.07,0,0,1-3.15.6,8.08,8.08,0,0,1-1.43-.13c-.5-.1-1-.21-1.53-.35Z" style="fill:#d71739"/></svg>