<svg xmlns="http://www.w3.org/2000/svg" xmlns:xlink="http://www.w3.org/1999/xlink" viewBox="0 0 28.25 28.25"><defs><linearGradient id="a" x1="13.66" y1="-43.02" x2="14.51" y2="61.59" gradientUnits="userSpaceOnUse"><stop offset="0" stop-color="#fff"/><stop offset="0.22" stop-color="#fdfeff"/><stop offset="0.3" stop-color="#f6fbfe"/><stop offset="0.36" stop-color="#ebf5fd"/><stop offset="0.4" stop-color="#daedfb"/><stop offset="0.44" stop-color="#c4e3f9"/><stop offset="0.47" stop-color="#a8d6f6"/><stop offset="0.51" stop-color="#88c7f3"/><stop offset="0.53" stop-color="#64b5ef"/><stop offset="0.54" stop-color="#5fb3ef"/><stop offset="0.54" stop-color="#64b5ef"/><stop offset="0.56" stop-color="#88c7f3"/><stop offset="0.59" stop-color="#a8d6f6"/><stop offset="0.62" stop-color="#c4e3f9"/><stop offset="0.65" stop-color="#daedfb"/><stop offset="0.69" stop-color="#ebf5fd"/><stop offset="0.74" stop-color="#f6fbfe"/><stop offset="0.81" stop-color="#fdfeff"/><stop offset="1" stop-color="#fff"/></linearGradient></defs><rect x="0.13" y="0.13" width="28" height="28" style="stroke:#000;stroke-miterlimit:10;stroke-width:0.25px;fill:url(#a)"/><circle cx="14.13" cy="13.64" r="12" style="fill:none;stroke:#d71739;stroke-miterlimit:10"/><path d="M10.2,9.29V7.93h2.58V9.29ZM15.36,19.8A2.55,2.55,0,0,1,13.28,19a3.9,3.9,0,0,1-.64-2.5V7.93H14.3v8.51a3.9,3.9,0,0,0,.12,1.07,1,1,0,0,0,.49.61,2.31,2.31,0,0,0,1.07.2,6,6,0,0,0,1.66-.3l.19,1.45a8.27,8.27,0,0,1-1.22.25A9.61,9.61,0,0,1,15.36,19.8Z" style="fill:#d71739"/></svg>