<svg xmlns="http://www.w3.org/2000/svg" xmlns:xlink="http://www.w3.org/1999/xlink" viewBox="0 0 32.25 32.25"><defs><linearGradient id="a" x1="15.6" y1="-49.19" x2="16.56" y2="70.38" gradientUnits="userSpaceOnUse"><stop offset="0" stop-color="#fff"/><stop offset="0.22" stop-color="#fdfeff"/><stop offset="0.3" stop-color="#f6fbfe"/><stop offset="0.36" stop-color="#ebf5fd"/><stop offset="0.4" stop-color="#daedfb"/><stop offset="0.44" stop-color="#c4e3f9"/><stop offset="0.47" stop-color="#a8d6f6"/><stop offset="0.51" stop-color="#88c7f3"/><stop offset="0.53" stop-color="#64b5ef"/><stop offset="0.54" stop-color="#5fb3ef"/><stop offset="0.54" stop-color="#64b5ef"/><stop offset="0.56" stop-color="#88c7f3"/><stop offset="0.59" stop-color="#a8d6f6"/><stop offset="0.62" stop-color="#c4e3f9"/><stop offset="0.65" stop-color="#daedfb"/><stop offset="0.69" stop-color="#ebf5fd"/><stop offset="0.74" stop-color="#f6fbfe"/><stop offset="0.81" stop-color="#fdfeff"/><stop offset="1" stop-color="#fff"/></linearGradient></defs><rect x="0.13" y="0.13" width="32" height="32" style="stroke:#000;stroke-miterlimit:10;stroke-width:0.25px;fill:url(#a)"/><circle cx="16.13" cy="16.12" r="6.86" style="fill:none;stroke:#d71739;stroke-miterlimit:10;stroke-width:0.75px"/><polyline points="19.55 2.41 12.7 2.41 16.13 2.41 16.13 9.27" style="fill:none;stroke:#d71739;stroke-miterlimit:10"/><polyline points="16.13 22.98 16.13 29.84 22.98 29.84" style="fill:none;stroke:#d71739;stroke-miterlimit:10;stroke-width:0.75px"/><path d="M14.27,20.84v-.46l1-.3a.35.35,0,0,0,.17-.1.26.26,0,0,0,.07-.2V13.15a.3.3,0,0,0-.07-.2.48.48,0,0,0-.17-.1l-1-.31V12.1H18v.44l-1,.31a.44.44,0,0,0-.16.1.26.26,0,0,0-.07.2v6.63a.26.26,0,0,0,.07.2.34.34,0,0,0,.16.1l1,.3v.46Z" style="fill:#d71739"/></svg>