<svg xmlns="http://www.w3.org/2000/svg" xmlns:xlink="http://www.w3.org/1999/xlink" viewBox="0 0 32.25 32.25"><defs><linearGradient id="a" x1="15.6" y1="-49.19" x2="16.56" y2="70.38" gradientUnits="userSpaceOnUse"><stop offset="0" stop-color="#fff"/><stop offset="0.22" stop-color="#fdfeff"/><stop offset="0.3" stop-color="#f6fbfe"/><stop offset="0.36" stop-color="#ebf5fd"/><stop offset="0.4" stop-color="#daedfb"/><stop offset="0.44" stop-color="#c4e3f9"/><stop offset="0.47" stop-color="#a8d6f6"/><stop offset="0.51" stop-color="#88c7f3"/><stop offset="0.53" stop-color="#64b5ef"/><stop offset="0.54" stop-color="#5fb3ef"/><stop offset="0.54" stop-color="#64b5ef"/><stop offset="0.56" stop-color="#88c7f3"/><stop offset="0.59" stop-color="#a8d6f6"/><stop offset="0.62" stop-color="#c4e3f9"/><stop offset="0.65" stop-color="#daedfb"/><stop offset="0.69" stop-color="#ebf5fd"/><stop offset="0.74" stop-color="#f6fbfe"/><stop offset="0.81" stop-color="#fdfeff"/><stop offset="1" stop-color="#fff"/></linearGradient></defs><rect x="0.13" y="0.13" width="32" height="32" style="stroke:#000;stroke-miterlimit:10;stroke-width:0.25px;fill:url(#a)"/><ellipse cx="16.13" cy="15.53" rx="14" ry="13.4" style="fill:none;stroke:#d71739;stroke-miterlimit:10;stroke-width:0.75px"/><path d="M10.42,22.17,10.35,18h1.34l.48,2.26a.71.71,0,0,0,.21.31l.31.24a10.21,10.21,0,0,0,.94.5,6.4,6.4,0,0,0,1.09.39,4.71,4.71,0,0,0,1.18.15,4.63,4.63,0,0,0,2.8-.75,2.38,2.38,0,0,0,1-2,2.22,2.22,0,0,0-.6-1.6,4.36,4.36,0,0,0-1.62-1,20.33,20.33,0,0,0-1.94-.67c-.63-.19-1.25-.4-1.86-.64a5.18,5.18,0,0,1-2.17-1.54,3.81,3.81,0,0,1-.78-2.41,3.67,3.67,0,0,1,.73-2.25,5,5,0,0,1,2-1.56,6.57,6.57,0,0,1,2.81-.58,14.42,14.42,0,0,1,1.78.11c.57.08,1.11.17,1.62.28l1.47.32v4H19.8l-.45-2.14a.55.55,0,0,0-.21-.3,1.45,1.45,0,0,0-.31-.23,3.17,3.17,0,0,0-.64-.35,4.73,4.73,0,0,0-.85-.25,4.58,4.58,0,0,0-1-.1,4.27,4.27,0,0,0-2.52.65,1.93,1.93,0,0,0-.89,1.61A2.85,2.85,0,0,0,13.41,12a3.62,3.62,0,0,0,1.87,1.23l1.79.6c.58.19,1.22.42,1.91.7a7.47,7.47,0,0,1,1.47.79,4,4,0,0,1,1.15,1.26,3.79,3.79,0,0,1,.45,1.92,4.35,4.35,0,0,1-.65,2.27,4.65,4.65,0,0,1-2,1.75,8.54,8.54,0,0,1-3.68.68A9,9,0,0,1,14,23c-.59-.1-1.18-.22-1.79-.38Z" style="fill:#d71739"/></svg>