<svg xmlns="http://www.w3.org/2000/svg" xmlns:xlink="http://www.w3.org/1999/xlink" viewBox="0 0 32.25 32.25"><defs><linearGradient id="a" x1="15.6" y1="-49.19" x2="16.56" y2="70.38" gradientUnits="userSpaceOnUse"><stop offset="0" stop-color="#fff"/><stop offset="0.22" stop-color="#fdfeff"/><stop offset="0.3" stop-color="#f6fbfe"/><stop offset="0.36" stop-color="#ebf5fd"/><stop offset="0.4" stop-color="#daedfb"/><stop offset="0.44" stop-color="#c4e3f9"/><stop offset="0.47" stop-color="#a8d6f6"/><stop offset="0.51" stop-color="#88c7f3"/><stop offset="0.53" stop-color="#64b5ef"/><stop offset="0.54" stop-color="#5fb3ef"/><stop offset="0.54" stop-color="#64b5ef"/><stop offset="0.56" stop-color="#88c7f3"/><stop offset="0.59" stop-color="#a8d6f6"/><stop offset="0.62" stop-color="#c4e3f9"/><stop offset="0.65" stop-color="#daedfb"/><stop offset="0.69" stop-color="#ebf5fd"/><stop offset="0.74" stop-color="#f6fbfe"/><stop offset="0.81" stop-color="#fdfeff"/><stop offset="1" stop-color="#fff"/></linearGradient></defs><rect x="0.13" y="0.13" width="32" height="32" style="stroke:#000;stroke-miterlimit:10;stroke-width:0.25px;fill:url(#a)"/><circle cx="16.12" cy="16.13" r="6.86" style="fill:none;stroke:#d71739;stroke-miterlimit:10;stroke-width:0.75px"/><polyline points="22.98 2.41 16.13 2.41 16.13 9.27" style="fill:none;stroke:#d71739;stroke-miterlimit:10;stroke-width:0.75px"/><polyline points="22.98 29.84 16.13 29.84 16.13 22.98" style="fill:none;stroke:#d71739;stroke-miterlimit:10;stroke-width:0.75px"/><line x1="9.27" y1="29.84" x2="16.13" y2="29.84" style="fill:none;stroke:#d71739;stroke-miterlimit:10;stroke-width:0.75px"/><text transform="translate(17.08 8.72) scale(1.08 1)" style="font-size:9.557169914245605px;fill:#d71739;font-family:AdobeSongStd-Light-GBpc-EUC-H, Adobe Song Std">+</text><path d="M15.83,19.55l-2.32-5.87a.67.67,0,0,0-.09-.14.24.24,0,0,0-.14-.1l-.48-.2V12.9h2.42v.34l-.76.27,1.65,4.19.17.61h.07l1.81-4.78-.76-.29V12.9h2v.34l-.47.21a.41.41,0,0,0-.13.1.33.33,0,0,0-.1.14l-1.87,4.78-.51,1.08Z" style="fill:#d71739"/></svg>