<svg xmlns="http://www.w3.org/2000/svg" viewBox="0 0 78 57"><rect x="0.13" y="0.13" width="77.75" height="56.75" style="fill:#fff"/><path d="M77.75.25v56.5H.25V.25h77.5M78,0H0V57H78V0Z"/><rect x="0.13" y="0.13" width="77.75" height="29.75" style="fill:#b3bbb3"/><path d="M77.75.25v29.5H.25V.25h77.5M78,0H0V30H78V0Z"/><text transform="translate(32.77 54.16)" style="font-size:9px;font-family:AdobeSongStd-Light-GBpc-EUC-H, Adobe Song Std">485</text><rect x="4" y="4" width="16" height="17.81" style="fill:#ffe800"/><rect x="10" y="16.57" width="4" height="8.38" style="fill:#ffe800"/><rect x="4" y="23.9" width="16" height="2.1" style="fill:#ffe800"/><ellipse cx="12" cy="12.38" rx="3" ry="3.14" style="fill:#fff"/><rect x="30.78" y="4" width="16" height="17.81" style="fill:#ffe800"/><rect x="36.78" y="16.57" width="4" height="8.38" style="fill:#ffe800"/><rect x="30.78" y="23.9" width="16" height="2.1" style="fill:#ffe800"/><ellipse cx="38.78" cy="12.38" rx="3" ry="3.14" style="fill:#fff"/><rect x="57.78" y="4" width="16" height="17.81" style="fill:#ffe800"/><rect x="63.78" y="16.57" width="4" height="8.38" style="fill:#ffe800"/><rect x="57.78" y="23.9" width="16" height="2.1" style="fill:#ffe800"/><ellipse cx="65.78" cy="12.38" rx="3" ry="3.14" style="fill:#fff"/><path d="M8,42.44V42l.54-.24a.48.48,0,0,0,.27-.29L11,36l.62-1.27h.61l2.69,6.85.1.17a.36.36,0,0,0,.16.12l.56.22v.4H12.89V42l.89-.31-1.91-4.89-.21-.72h-.09l-2.1,5.59.9.33v.4Zm2.13-2.68.26-.74h2.46l.26.74Z"/><path d="M35.61,42.89v-.4l.83-.26a.28.28,0,0,0,.14-.09.24.24,0,0,0,.06-.18v-5.8a.22.22,0,0,0-.06-.17.42.42,0,0,0-.14-.09l-.83-.27v-.39h3.08a4.87,4.87,0,0,1,1.73.24,1.67,1.67,0,0,1,.82.63,1.55,1.55,0,0,1,.23.83,1.68,1.68,0,0,1-.44,1.2,2.25,2.25,0,0,1-1.18.66v0a2.69,2.69,0,0,1,1.09.26,1.82,1.82,0,0,1,.76.63,1.59,1.59,0,0,1,.28,1,2.12,2.12,0,0,1-.26,1.09,1.9,1.9,0,0,1-.71.67,3.55,3.55,0,0,1-1,.35,6.15,6.15,0,0,1-1.15.1Zm2.15-7v2.77h.55a2.57,2.57,0,0,0,1.55-.34,1.14,1.14,0,0,0,.43-.93,1.4,1.4,0,0,0-.42-1.14,2,2,0,0,0-1.34-.36Zm0,3.39v3H39a2.21,2.21,0,0,0,1.33-.33,1.26,1.26,0,0,0,.43-1.07,1.44,1.44,0,0,0-.46-1.23,2.62,2.62,0,0,0-1.57-.35Z"/><path d="M67.62,41.73V39.89a.22.22,0,0,0-.06-.17.25.25,0,0,0-.14-.08l-1.06-.27V39H69.6v.39l-.68.27a.46.46,0,0,0-.13.08.19.19,0,0,0-.07.17v1.73c0,.24,0,.42,0,.56a10.38,10.38,0,0,1-1.36.38,7,7,0,0,1-1.58.17A3.75,3.75,0,0,1,64,42.27a3.39,3.39,0,0,1-1.34-1.34,4.45,4.45,0,0,1-.5-2.18,4.34,4.34,0,0,1,.5-2.12A3.48,3.48,0,0,1,64,35.24a3.88,3.88,0,0,1,2-.5,9.41,9.41,0,0,1,.95,0c.3,0,.59.07.89.13s.6.13.91.22v2h-.63L67.86,36a.18.18,0,0,0-.1-.13l-.14-.08a4.24,4.24,0,0,0-.85-.28,4.9,4.9,0,0,0-.93-.1,2.4,2.4,0,0,0-1.29.35,2.25,2.25,0,0,0-.88,1,4.48,4.48,0,0,0-.31,1.76,5,5,0,0,0,.32,1.84,2.75,2.75,0,0,0,.93,1.26,2.4,2.4,0,0,0,1.47.45,3.37,3.37,0,0,0,.66-.06,3.88,3.88,0,0,0,.53-.15A2.27,2.27,0,0,0,67.62,41.73Z"/></svg>