<svg xmlns="http://www.w3.org/2000/svg" xmlns:xlink="http://www.w3.org/1999/xlink" viewBox="0 0 28.25 28.25"><defs><linearGradient id="a" x1="13.66" y1="-43.02" x2="14.51" y2="61.59" gradientUnits="userSpaceOnUse"><stop offset="0" stop-color="#fff"/><stop offset="0.22" stop-color="#fdfeff"/><stop offset="0.3" stop-color="#f6fbfe"/><stop offset="0.36" stop-color="#ebf5fd"/><stop offset="0.4" stop-color="#daedfb"/><stop offset="0.44" stop-color="#c4e3f9"/><stop offset="0.47" stop-color="#a8d6f6"/><stop offset="0.51" stop-color="#88c7f3"/><stop offset="0.53" stop-color="#64b5ef"/><stop offset="0.54" stop-color="#5fb3ef"/><stop offset="0.54" stop-color="#64b5ef"/><stop offset="0.56" stop-color="#88c7f3"/><stop offset="0.59" stop-color="#a8d6f6"/><stop offset="0.62" stop-color="#c4e3f9"/><stop offset="0.65" stop-color="#daedfb"/><stop offset="0.69" stop-color="#ebf5fd"/><stop offset="0.74" stop-color="#f6fbfe"/><stop offset="0.81" stop-color="#fdfeff"/><stop offset="1" stop-color="#fff"/></linearGradient></defs><rect x="0.13" y="0.13" width="28" height="28" style="stroke:#000;stroke-miterlimit:10;stroke-width:0.25px;fill:url(#a)"/><circle cx="14.13" cy="14.12" r="6" style="fill:none;stroke:#d71739;stroke-miterlimit:10;stroke-width:0.75px"/><polyline points="17.13 2.13 11.13 2.13 14.13 2.13 14.13 8.13" style="fill:none;stroke:#d71739;stroke-miterlimit:10"/><polyline points="14.13 20.13 14.13 26.13 20.13 26.13" style="fill:none;stroke:#d71739;stroke-miterlimit:10;stroke-width:0.75px"/><path d="M12.5,18.25v-.4l.86-.26a.27.27,0,0,0,.15-.09.24.24,0,0,0,.06-.18v-5.8a.22.22,0,0,0-.06-.17.38.38,0,0,0-.15-.09L12.5,11V10.6h3.25V11l-.86.27a.42.42,0,0,0-.14.09.24.24,0,0,0-.06.17v5.8a.24.24,0,0,0,.06.18.42.42,0,0,0,.14.09l.86.26v.4Z" style="fill:#d71739"/></svg>