<svg xmlns="http://www.w3.org/2000/svg" xmlns:xlink="http://www.w3.org/1999/xlink" viewBox="0 0 78.25 57.25"><defs><linearGradient id="a" x1="39.44" y1="59.49" x2="38.86" y2="-18.51" gradientUnits="userSpaceOnUse"><stop offset="0"/><stop offset="0" stop-color="#040404"/><stop offset="0.07" stop-color="#3e3e3e"/><stop offset="0.13" stop-color="#727272"/><stop offset="0.2" stop-color="#9d9d9d"/><stop offset="0.27" stop-color="silver"/><stop offset="0.33" stop-color="#dcdcdc"/><stop offset="0.4" stop-color="#efefef"/><stop offset="0.47" stop-color="#fbfbfb"/><stop offset="0.54" stop-color="#fff"/><stop offset="0.6" stop-color="#fbfbfb"/><stop offset="0.65" stop-color="#efefef"/><stop offset="0.71" stop-color="#dbdbdb"/><stop offset="0.77" stop-color="silver"/><stop offset="0.83" stop-color="#9c9c9c"/><stop offset="0.89" stop-color="#707070"/><stop offset="0.94" stop-color="#3c3c3c"/><stop offset="1" stop-color="#010101"/><stop offset="1"/></linearGradient></defs><rect x="0.13" y="0.13" width="78" height="57" style="fill:#fff;stroke:#000;stroke-miterlimit:10;stroke-width:0.25px"/><rect x="0.13" y="0.13" width="78" height="34" style="stroke:#000;stroke-miterlimit:10;stroke-width:0.25px;fill:url(#a)"/><path d="M12.11,49.79v-.3l.62-.19a.26.26,0,0,0,.1-.07.19.19,0,0,0,.05-.13V44.74a.17.17,0,0,0-.05-.12.23.23,0,0,0-.1-.07l-.62-.2v-.29h2.34a3.9,3.9,0,0,1,1.07.12,1.67,1.67,0,0,1,.64.34,1.27,1.27,0,0,1,.32.47,1.82,1.82,0,0,1,.08.52,1.47,1.47,0,0,1-.21.8,1.73,1.73,0,0,1-.51.53,1.87,1.87,0,0,1-.61.26l-.65.27-.92-.19,0-.43.18,0,.29,0h.24a1.49,1.49,0,0,0,.71-.16,1.06,1.06,0,0,0,.42-.42,1.18,1.18,0,0,0,.14-.55,1,1,0,0,0-.35-.87,1.6,1.6,0,0,0-1-.27h-.59V49.1a.18.18,0,0,0,0,.13.41.41,0,0,0,.11.07l.63.19v.3Zm5.58,0h-1a1.36,1.36,0,0,1-.4,0,.6.6,0,0,1-.22-.16l-.24-.31-1.44-2,.82-.26,1.51,2a.48.48,0,0,0,.14.16.35.35,0,0,0,.18.11l.62.18Z"/><path d="M18.15,49.56l0-1.53h.48l.17.83s0,.07.07.11l.11.09a2.57,2.57,0,0,0,.33.18,2.15,2.15,0,0,0,.38.15,1.84,1.84,0,0,0,.41,0,1.57,1.57,0,0,0,1-.27.88.88,0,0,0,.36-.75.83.83,0,0,0-.21-.58,1.39,1.39,0,0,0-.57-.38,7.08,7.08,0,0,0-.68-.25L19.3,47a1.8,1.8,0,0,1-.76-.57,1.36,1.36,0,0,1-.28-.88,1.38,1.38,0,0,1,.26-.82,1.67,1.67,0,0,1,.7-.58,2.24,2.24,0,0,1,1-.21,6.26,6.26,0,0,1,.63,0l.57.1.51.12v1.47h-.47l-.16-.78a.19.19,0,0,0-.07-.11l-.11-.09a1.14,1.14,0,0,0-.22-.12l-.3-.1a2,2,0,0,0-.35,0,1.45,1.45,0,0,0-.89.24.7.7,0,0,0-.31.58,1.12,1.12,0,0,0,.17.59,1.25,1.25,0,0,0,.65.45l.63.22a6.31,6.31,0,0,1,.67.25,3,3,0,0,1,.52.29,1.41,1.41,0,0,1,.4.47,1.34,1.34,0,0,1,.16.7,1.61,1.61,0,0,1-.95,1.47,3,3,0,0,1-1.29.25,3,3,0,0,1-.58-.06c-.21,0-.41-.08-.63-.14Z"/><path d="M23.14,49.79v-.48c.54-.44,1-.86,1.46-1.27a6.57,6.57,0,0,0,1-1.2A2.15,2.15,0,0,0,26,45.67a1.91,1.91,0,0,0-.09-.63.69.69,0,0,0-.27-.39.88.88,0,0,0-.51-.13,1.59,1.59,0,0,0-.48.07,3,3,0,0,0-.45.18,3.36,3.36,0,0,0-.39.23l-.3.19h-.17l0-.81.37-.16A3.28,3.28,0,0,1,25,44a2.38,2.38,0,0,1,1,.19,1.68,1.68,0,0,1,.68.55,1.46,1.46,0,0,1,.25.87,2,2,0,0,1-.22.92,3.84,3.84,0,0,1-.61.85,10.39,10.39,0,0,1-.89.84l-1.06.88v.06l.5,0h1.79a.17.17,0,0,0,.15,0,.24.24,0,0,0,.06-.11l.13-.64h.4l0,1.52Z"/><path d="M28.13,49.57l0-.84h.17a2.61,2.61,0,0,0,.29.18l.42.21a2.58,2.58,0,0,0,.49.17,1.64,1.64,0,0,0,.48.07,1.14,1.14,0,0,0,.91-.3,1.24,1.24,0,0,0,.26-.84,1.34,1.34,0,0,0-.11-.58.88.88,0,0,0-.39-.42,1.56,1.56,0,0,0-.75-.15h-.54V46.5h.46a1.18,1.18,0,0,0,.84-.27A1.1,1.1,0,0,0,31,45.4a1.16,1.16,0,0,0-.17-.65.76.76,0,0,0-.66-.25,1.76,1.76,0,0,0-.45.07,2.85,2.85,0,0,0-.44.16c-.14.07-.27.13-.38.2l-.27.17h-.17l0-.8.56-.21a2.89,2.89,0,0,1,1-.13,2.93,2.93,0,0,1,1,.15,1.67,1.67,0,0,1,.71.45,1,1,0,0,1,.27.73,1.34,1.34,0,0,1-.12.52,1.43,1.43,0,0,1-.4.51,2.21,2.21,0,0,1-.8.38v0a2.46,2.46,0,0,1,.5.1,1.59,1.59,0,0,1,.49.24,1.22,1.22,0,0,1,.38.43,1.28,1.28,0,0,1,.15.65,1.41,1.41,0,0,1-.2.74,1.85,1.85,0,0,1-.53.55,3,3,0,0,1-.74.34,2.84,2.84,0,0,1-.81.12,4,4,0,0,1-.73-.07,3.08,3.08,0,0,1-.55-.15Z"/><path d="M33,49.79v-.48c.54-.44,1-.86,1.46-1.27a7,7,0,0,0,1-1.2,2.23,2.23,0,0,0,.37-1.17,1.91,1.91,0,0,0-.09-.63.76.76,0,0,0-.28-.39.82.82,0,0,0-.5-.13,1.59,1.59,0,0,0-.48.07,3.66,3.66,0,0,0-.46.18l-.39.23-.29.19h-.17l0-.81.36-.16a3.2,3.2,0,0,1,.57-.18,2.8,2.8,0,0,1,.74-.08,2.33,2.33,0,0,1,1,.19,1.64,1.64,0,0,1,.69.55,1.54,1.54,0,0,1,.25.87,2,2,0,0,1-.23.92,3.54,3.54,0,0,1-.61.85,9.09,9.09,0,0,1-.89.84c-.33.29-.68.58-1,.88v.06l.5,0h1.79a.16.16,0,0,0,.14,0,.19.19,0,0,0,.07-.11l.12-.64H37l0,1.52Z"/><path d="M40.54,49.79v-.3l.62-.19a.41.41,0,0,0,.11-.07.18.18,0,0,0,0-.13V44.74a.16.16,0,0,0,0-.12.26.26,0,0,0-.11-.07l-.62-.2v-.29h2.63a3.19,3.19,0,0,1,.73.08,2.83,2.83,0,0,1,.77.27,2.32,2.32,0,0,1,.69.52,2.52,2.52,0,0,1,.5.83A3.51,3.51,0,0,1,46,47a3,3,0,0,1-.38,1.61,2.42,2.42,0,0,1-1,.93,3.47,3.47,0,0,1-1.46.3Zm1.61-5.25v4.77h1a1.74,1.74,0,0,0,1.47-.59,2.53,2.53,0,0,0,.47-1.65,3.07,3.07,0,0,0-.27-1.35,2,2,0,0,0-.76-.88,2.18,2.18,0,0,0-1.16-.3Z"/><path d="M48.91,49.88a2.13,2.13,0,0,1-1-.25,1.87,1.87,0,0,1-.75-.75,2.53,2.53,0,0,1-.27-1.22,2.48,2.48,0,0,1,.27-1.16,2,2,0,0,1,.72-.82,2,2,0,0,1,1.08-.3,1.9,1.9,0,0,1,1,.23,1.67,1.67,0,0,1,.61.63,1.72,1.72,0,0,1,.21.84v.13c0,.06,0,.11,0,.17a.51.51,0,0,1,0,.13H47.62l0-.41h2.22a2.24,2.24,0,0,0-.09-.68.9.9,0,0,0-.32-.45,1,1,0,0,0-.58-.16,1,1,0,0,0-1,.55,1.65,1.65,0,0,0-.19.54,2.93,2.93,0,0,0-.06.58,2.69,2.69,0,0,0,.15.92,1.27,1.27,0,0,0,.47.64,1.52,1.52,0,0,0,.9.24,1.79,1.79,0,0,0,.57-.09,2.67,2.67,0,0,0,.48-.21c.14-.09.26-.16.35-.23h.11v.46a4.12,4.12,0,0,1-.77.46A2.53,2.53,0,0,1,48.91,49.88Z"/><path d="M53.76,49.89a4.78,4.78,0,0,1-.92-.09,3.34,3.34,0,0,1-.84-.29V44.4a.22.22,0,0,0,0-.14l-.12-.07L51.32,44v-.28l1.48-.08v2.52a1.49,1.49,0,0,1,.5-.5,1.45,1.45,0,0,1,.5-.2,2.13,2.13,0,0,1,.39,0,1.54,1.54,0,0,1,.92.27,1.72,1.72,0,0,1,.58.74,2.59,2.59,0,0,1,.2,1.07,2.86,2.86,0,0,1-.25,1.22,2,2,0,0,1-.72.88A2,2,0,0,1,53.76,49.89Zm0-.43a1.16,1.16,0,0,0,.75-.24,1.44,1.44,0,0,0,.44-.63,2.63,2.63,0,0,0,.14-.86,3.1,3.1,0,0,0-.13-.9,1.32,1.32,0,0,0-.43-.63,1.12,1.12,0,0,0-.74-.24,1.7,1.7,0,0,0-.49.1,1,1,0,0,0-.46.36v2.67a.81.81,0,0,0,.27.19,1.74,1.74,0,0,0,.36.13A1.26,1.26,0,0,0,53.72,49.46Z"/><path d="M58.54,49.88a1.58,1.58,0,0,1-.69-.15,1.11,1.11,0,0,1-.49-.47,1.69,1.69,0,0,1-.18-.84v-2.1a.22.22,0,0,0,0-.14.35.35,0,0,0-.12-.07l-.47-.2v-.28L58,45.41v2.67a3,3,0,0,0,.06.64.63.63,0,0,0,.26.4,1,1,0,0,0,.59.14,1.46,1.46,0,0,0,.62-.11,1,1,0,0,0,.41-.29V46.32a.17.17,0,0,0-.05-.13.4.4,0,0,0-.13-.07l-.47-.2v-.28l1.45-.23V49a.17.17,0,0,0,0,.13.57.57,0,0,0,.13.08l.47.19v.29L60,49.87h0v-.71h0a2.13,2.13,0,0,1-.6.54A1.65,1.65,0,0,1,58.54,49.88Z"/><path d="M63.93,48.3a2.31,2.31,0,0,1-.46,0,1.8,1.8,0,0,1-.33-.09.5.5,0,0,0-.19.15.48.48,0,0,0-.09.29.4.4,0,0,0,.1.28.44.44,0,0,0,.22.17h1.5a1.93,1.93,0,0,1,.87.16,1,1,0,0,1,.46.42,1.09,1.09,0,0,1,.14.51,1.23,1.23,0,0,1-.31.84,1.94,1.94,0,0,1-.82.58,3,3,0,0,1-1.15.21,3.32,3.32,0,0,1-1-.13,1.64,1.64,0,0,1-.68-.37.78.78,0,0,1-.25-.59.83.83,0,0,1,.27-.65,1.4,1.4,0,0,1,.61-.33v-.05a1.46,1.46,0,0,1-.28-.14,1,1,0,0,1-.25-.25.62.62,0,0,1-.1-.37.69.69,0,0,1,.11-.42.86.86,0,0,1,.29-.28,1,1,0,0,1,.34-.14v0a1.9,1.9,0,0,1-.31-.23,1.34,1.34,0,0,1-.28-.37,1.27,1.27,0,0,1-.11-.54,1.4,1.4,0,0,1,.21-.76,1.45,1.45,0,0,1,.59-.53,2,2,0,0,1,.91-.19,4.05,4.05,0,0,1,.52,0l.44.08h1.42l0,.5-1-.06v0a2.08,2.08,0,0,1,.26.4,1.09,1.09,0,0,1,.1.52,1.31,1.31,0,0,1-.45,1A1.83,1.83,0,0,1,63.93,48.3Zm.13,3a2.39,2.39,0,0,0,.66-.09,1.18,1.18,0,0,0,.53-.29.74.74,0,0,0,.21-.55.64.64,0,0,0-.19-.44.84.84,0,0,0-.65-.22H63.23a.71.71,0,0,0-.48.74.68.68,0,0,0,.13.42,1.1,1.1,0,0,0,.34.26,2.23,2.23,0,0,0,.44.13A2,2,0,0,0,64.06,51.31Zm-.12-3.38a.82.82,0,0,0,.48-.13.72.72,0,0,0,.31-.37,1.55,1.55,0,0,0,.11-.61,1.14,1.14,0,0,0-.25-.8.83.83,0,0,0-.65-.27.88.88,0,0,0-.42.11.79.79,0,0,0-.31.34,1.37,1.37,0,0,0-.12.62,1.23,1.23,0,0,0,.24.83A.74.74,0,0,0,63.94,47.93Z"/><path d="M17.49,6.13H60.76a2,2,0,0,1,1.75,3l-9,16.44a5,5,0,0,1-4.39,2.61H29.09a5,5,0,0,1-4.39-2.61l-9-16.44A2,2,0,0,1,17.49,6.13Z" style="fill:#7ba9ea"/><circle cx="7.63" cy="17.13" r="3.5" style="fill:#b2b2b2"/><circle cx="70.63" cy="17.13" r="3.5" style="fill:#b2b2b2"/><circle cx="39.13" cy="11.13" r="2" style="fill:#cbcbcb"/><circle cx="33.13" cy="11.13" r="2" style="fill:#cbcbcb"/><circle cx="27.13" cy="11.13" r="2" style="fill:#cbcbcb"/><circle cx="45.13" cy="11.13" r="2" style="fill:#cbcbcb"/><circle cx="51.13" cy="11.13" r="2" style="fill:#cbcbcb"/><circle cx="33.13" cy="23.13" r="2" style="fill:#cbcbcb"/><circle cx="39.13" cy="23.13" r="2" style="fill:#cbcbcb"/><circle cx="45.13" cy="23.13" r="2" style="fill:#cbcbcb"/><circle cx="30.13" cy="17.13" r="2" style="fill:#cbcbcb"/><circle cx="36.13" cy="17.13" r="2" style="fill:#cbcbcb"/><circle cx="42.13" cy="17.13" r="2" style="fill:#cbcbcb"/><circle cx="48.13" cy="17.13" r="2" style="fill:#cbcbcb"/></svg>