<svg xmlns="http://www.w3.org/2000/svg" viewBox="0 0 78 57"><rect x="0.13" y="0.13" width="77.75" height="56.75" style="fill:#fff"/><path d="M77.75.25v56.5H.25V.25h77.5M78,0H0V57H78V0Z"/><rect x="0.13" y="0.13" width="77.75" height="29.75" style="fill:#b3bbb3"/><path d="M77.75.25v29.5H.25V.25h77.5M78,0H0V30H78V0Z"/><text transform="translate(23.77 54.16)" style="font-size:9px;font-family:AdobeSongStd-Light-GBpc-EUC-H, Adobe Song Std">RS232-1</text><rect x="4" y="4" width="16" height="17.81" style="fill:#ffe800"/><rect x="10" y="16.57" width="4" height="8.38" style="fill:#ffe800"/><rect x="4" y="23.9" width="16" height="2.1" style="fill:#ffe800"/><ellipse cx="12" cy="12.38" rx="3" ry="3.14" style="fill:#fff"/><rect x="30.78" y="4" width="16" height="17.81" style="fill:#ffe800"/><rect x="36.78" y="16.57" width="4" height="8.38" style="fill:#ffe800"/><rect x="30.78" y="23.9" width="16" height="2.1" style="fill:#ffe800"/><ellipse cx="38.78" cy="12.38" rx="3" ry="3.14" style="fill:#fff"/><rect x="57.78" y="4" width="16" height="17.81" style="fill:#ffe800"/><rect x="63.78" y="16.57" width="4" height="8.38" style="fill:#ffe800"/><rect x="57.78" y="23.9" width="16" height="2.1" style="fill:#ffe800"/><ellipse cx="65.78" cy="12.38" rx="3" ry="3.14" style="fill:#fff"/><path d="M8.58,42.44V42l.82-.26a.19.19,0,0,0,.14-.09.24.24,0,0,0,.06-.17V35.71a.24.24,0,0,0-.06-.17.39.39,0,0,0-.14-.08l-.82-.27V34.8H11.7a4.78,4.78,0,0,1,1.43.17,2.06,2.06,0,0,1,.85.45,1.63,1.63,0,0,1,.42.62,2.37,2.37,0,0,1,.11.69,1.94,1.94,0,0,1-.28,1.07,2.2,2.2,0,0,1-.68.71,2.74,2.74,0,0,1-.82.35l-.86.35L10.64,39l0-.57.23,0,.38,0h.33a1.83,1.83,0,0,0,.95-.22,1.32,1.32,0,0,0,.55-.55,1.48,1.48,0,0,0,.19-.74,1.39,1.39,0,0,0-.46-1.16,2.17,2.17,0,0,0-1.35-.36h-.79v6.08a.24.24,0,0,0,.06.17.24.24,0,0,0,.14.09l.85.26v.4Zm7.44,0H14.73a1.82,1.82,0,0,1-.54-.06.75.75,0,0,1-.3-.21l-.31-.41-1.92-2.64,1.09-.34,2,2.67a1.59,1.59,0,0,0,.19.2.59.59,0,0,0,.24.15L16,42Z"/><path d="M37.13,42.89v-.4l.88-.26a.38.38,0,0,0,.15-.09.24.24,0,0,0,.06-.18V35.88H36.46a.25.25,0,0,0-.15,0,.28.28,0,0,0-.08.15L36,37.23h-.63v-2h6.77v2h-.62l-.21-1.15a.27.27,0,0,0-.08-.15.25.25,0,0,0-.15,0H39.34V42a.24.24,0,0,0,.06.18.38.38,0,0,0,.15.09l.88.26v.4Z"/><path d="M67.62,41.73V39.89a.22.22,0,0,0-.06-.17.25.25,0,0,0-.14-.08l-1.06-.27V39H69.6v.39l-.68.27a.46.46,0,0,0-.13.08.19.19,0,0,0-.07.17v1.73c0,.24,0,.42,0,.56a10.38,10.38,0,0,1-1.36.38,7,7,0,0,1-1.58.17A3.75,3.75,0,0,1,64,42.27a3.39,3.39,0,0,1-1.34-1.34,4.45,4.45,0,0,1-.5-2.18,4.23,4.23,0,0,1,.5-2.12A3.48,3.48,0,0,1,64,35.24a3.88,3.88,0,0,1,2-.5,9.41,9.41,0,0,1,.95,0c.3,0,.59.07.89.13s.6.13.91.22v2h-.62L67.86,36a.18.18,0,0,0-.1-.13l-.14-.08a4.24,4.24,0,0,0-.85-.28,4.9,4.9,0,0,0-.93-.1,2.4,2.4,0,0,0-1.29.35,2.25,2.25,0,0,0-.88,1,4.48,4.48,0,0,0-.31,1.76,5,5,0,0,0,.32,1.84,2.82,2.82,0,0,0,.93,1.26,2.42,2.42,0,0,0,1.47.45,3.37,3.37,0,0,0,.66-.06,3.88,3.88,0,0,0,.53-.15A2.78,2.78,0,0,0,67.62,41.73Z"/></svg>